<?xml version="1.0" encoding="utf-8"?>
<!-- Generator: Adobe Illustrator 27.5.0, SVG Export Plug-In . SVG Version: 6.00 Build 0)  -->
<svg version="1.1" xmlns="http://www.w3.org/2000/svg" xmlns:xlink="http://www.w3.org/1999/xlink" x="0px" y="0px"
	 viewBox="0 0 5000 5000" style="enable-background:new 0 0 5000 5000;" xml:space="preserve">
<g id="Background">
	<g>
		<rect style="fill:#FFFFFF;" width="5000" height="5000"/>
	</g>
</g>
<g id="Ball">
	<g>
		<g>
			<g>
				<g>
					<g>
						<g>
							<g>
								<defs>
									<path id="SVGID_1_" d="M4136.586,2500c0,1.966,0,3.965-0.033,5.931c-0.031,13.386-0.221,26.709-0.601,40
										c-0.92,33.656-2.856,67.058-5.774,100.175c-69.151,784.968-690.154,1411.521-1472.585,1489.301
										c-54.147,5.394-109.025,8.153-164.568,8.153c-410.756,0-786.333-150.675-1074.422-399.812
										c-165.172-142.807-301.636-317.972-399.463-515.656C910.496,3008.615,849.464,2761.445,849.464,2500
										c0-907.697,735.866-1643.561,1643.562-1643.561c385.22,0,739.512,132.562,1019.735,354.546
										c270.581,214.339,472.137,512.104,565.744,854.406c25.567,93.45,43.078,190.199,51.77,289.486
										c3.33,38.065,5.36,76.511,6.026,115.274C4136.492,2480.08,4136.586,2490.04,4136.586,2500z"/>
								</defs>
								<clipPath id="SVGID_00000086672157413861243020000012383628344354533003_">
									<use xlink:href="#SVGID_1_"  style="overflow:visible;"/>
								</clipPath>
								
									<rect x="849.464" y="856.439" style="clip-path:url(#SVGID_00000086672157413861243020000012383628344354533003_);fill:#C9BDB9;" width="3287.123" height="3287.122"/>
								<path style="clip-path:url(#SVGID_00000086672157413861243020000012383628344354533003_);fill:#C9BDB9;" d="
									M4137.586,2043.812v818.021h4.617c-106.345,251.427-260.228,477.851-450.381,668.005
									c-380.307,380.307-905.697,615.532-1486.026,615.532c-290.165,0-566.594-58.806-818.021-165.151
									c-125.714-53.172-245.176-118.229-356.98-193.762c-55.902-37.767-109.889-78.152-161.785-120.981
									c-6.487-5.354-12.941-10.745-19.363-16.175c-1.605-1.357-3.209-2.717-4.81-4.079h3.627V855.439H3937.75v-2.3
									c1.196,1.736,2.388,3.473,3.579,5.213c2.381,3.479,4.751,6.965,7.112,10.459c75.533,111.804,140.59,231.266,193.762,356.98
									h-4.617V2043.812z"/>
								<path style="clip-path:url(#SVGID_00000086672157413861243020000012383628344354533003_);fill:#CABEBA;" d="
									M4137.586,2043.812v417.487v318.504h5.191c-2.998,7.886-6.043,15.749-9.134,23.589
									c-6.183,15.679-12.551,31.266-19.103,46.755c-104.825,247.835-256.51,471.025-443.947,658.462
									c-374.874,374.874-892.758,606.739-1464.797,606.739c-286.02,0-558.5-57.966-806.335-162.792
									c-123.918-52.413-241.674-116.54-351.88-190.994c-55.103-37.227-108.319-77.036-159.474-119.252
									c-12.789-10.554-25.449-21.259-37.977-32.111c-1.566-1.356-3.13-2.715-4.692-4.076h3.026V855.439h3053.871v-0.638
									c2.387,3.399,4.764,6.806,7.131,10.22c4.734,6.829,9.427,13.687,14.081,20.575
									c74.454,110.207,138.582,227.963,190.994,351.88c6.552,15.49,12.92,31.076,19.103,46.755
									c3.091,7.84,6.136,15.703,9.134,23.589h-5.191V2043.812z"/>
								<path style="clip-path:url(#SVGID_00000086672157413861243020000012383628344354533003_);fill:#CBBFBB;" d="
									M4137.586,2043.812v411.436v243.337h2.458c-5.35,15.81-10.889,31.534-16.613,47.168
									c-11.449,31.268-23.64,62.178-36.553,92.708c-103.306,244.243-252.793,464.198-437.513,648.919
									c-369.441,369.441-879.82,597.946-1443.568,597.946c-281.874,0-550.406-57.126-794.649-160.432
									c-122.122-51.653-238.171-114.851-346.78-188.226c-54.305-36.688-106.749-75.919-157.163-117.524
									c-12.603-10.401-25.08-20.951-37.427-31.646c-6.173-5.347-12.314-10.732-18.423-16.152c-3.054-2.71-6.1-5.429-9.138-8.157
									h6.247V855.439h3015.052v-3.417c2.391,3.32,4.773,6.648,7.145,9.983c9.487,13.341,18.818,26.801,27.99,40.377
									c73.375,108.609,136.573,224.659,188.226,346.78c12.913,30.531,25.105,61.44,36.553,92.708
									c5.725,15.634,11.263,31.358,16.613,47.168h-2.458V2043.812z"/>
								<path style="clip-path:url(#SVGID_00000086672157413861243020000012383628344354533003_);fill:#CBC0BC;" d="
									M4137.586,2043.812v405.386v145.285h3.394c-4.519,15.91-9.228,31.739-14.125,47.486
									c-19.591,62.986-42.194,124.644-67.64,184.807c-101.787,240.651-249.075,457.372-431.079,639.376
									c-364.009,364.008-866.881,589.152-1422.339,589.152c-277.729,0-542.312-56.286-782.963-158.073
									c-120.326-50.894-234.669-113.162-341.681-185.458c-53.506-36.148-105.179-74.803-154.851-115.796
									c-24.836-20.497-49.172-41.577-72.986-63.222c-2.977-2.706-5.945-5.42-8.906-8.143h4.055V855.439h2976.423v-5.431
									c2.394,3.242,4.779,6.491,7.154,9.748c4.751,6.514,9.463,13.057,14.137,19.629c9.348,13.145,18.542,26.407,27.579,39.783
									c72.296,107.012,134.564,221.355,185.458,341.681c25.447,60.163,48.05,121.821,67.64,184.807
									c4.897,15.746,9.607,31.576,14.125,47.485h-3.394V2043.812z"/>
								<path style="clip-path:url(#SVGID_00000086672157413861243020000012383628344354533003_);fill:#CCC1BD;" d="
									M4137.586,2043.812v399.335v24.132h4.326c-1.747,8.026-3.543,16.033-5.387,24.023c-3.688,15.978-7.57,31.883-11.643,47.71
									c-8.145,31.656-17.052,63.006-26.701,94.028c-19.298,62.046-41.564,122.784-66.631,182.049
									c-100.268,237.06-245.358,450.545-424.645,629.833c-358.575,358.575-853.943,580.359-1401.11,580.359
									c-273.584,0-534.218-55.446-771.277-155.714c-118.53-50.134-231.166-111.473-336.581-182.69
									c-52.707-35.608-103.61-73.686-152.54-114.067c-24.465-20.191-48.438-40.957-71.897-62.279
									c-5.865-5.33-11.697-10.696-17.497-16.095c-2.9-2.7-5.792-5.408-8.676-8.125h1.137V855.439h2937.994v-6.686
									c2.396,3.164,4.782,6.335,7.16,9.514c19.018,25.43,37.44,51.333,55.244,77.686
									c71.217,105.415,132.556,218.051,182.69,336.581c25.067,59.265,47.333,120.003,66.631,182.049
									c9.649,31.023,18.556,62.372,26.701,94.028c4.072,15.828,7.954,31.732,11.643,47.711c1.844,7.989,3.64,15.997,5.387,24.023
									h-4.326V2043.812z"/>
								<path style="clip-path:url(#SVGID_00000086672157413861243020000012383628344354533003_);fill:#CDC2BE;" d="
									M4137.586,2043.812v199.524v49.019h3.978c-2.069,16.278-4.339,32.493-6.807,48.643c-4.935,32.3-10.663,64.34-17.161,96.099
									c-25.995,127.034-64.334,249.573-113.708,366.307c-98.749,233.468-241.64,443.719-418.211,620.29
									c-353.143,353.143-841.004,571.566-1379.881,571.566c-269.439,0-526.123-54.606-759.591-153.354
									c-116.734-49.374-227.664-109.784-331.481-179.922c-51.909-35.069-102.04-72.57-150.229-112.339
									c-24.095-19.885-47.704-40.336-70.807-61.335c-11.552-10.499-22.977-21.135-34.273-31.905
									c-5.648-5.385-11.264-10.804-16.847-16.255h5.898V855.439h2903.365v-2.552c1.193,1.547,2.385,3.096,3.573,4.646
									c4.756,6.203,9.475,12.435,14.157,18.696c18.73,25.045,36.873,50.555,54.407,76.509
									c70.138,103.818,130.548,214.747,179.922,331.481c49.374,116.734,87.713,239.272,113.708,366.307
									c6.499,31.759,12.226,63.798,17.161,96.099c2.468,16.15,4.738,32.365,6.807,48.643h-3.978V2043.812z"/>
								<path style="clip-path:url(#SVGID_00000086672157413861243020000012383628344354533003_);fill:#CEC3BF;" d="
									M4127.22,2043.812c0,1061.174-860.251,1921.425-1921.425,1921.425c-530.587,0-1010.943-215.063-1358.653-562.772h1.321
									V855.439H3710.25v-6.942c2.395,3.01,4.781,6.027,7.157,9.052c9.508,12.099,18.874,24.314,28.094,36.644
									c18.442,24.66,36.305,49.777,53.57,75.332c69.059,102.221,128.539,211.444,177.154,326.382
									C4073.455,1525.783,4127.22,1778.519,4127.22,2043.812z"/>
								<path style="clip-path:url(#SVGID_00000086672157413861243020000012383628344354533003_);fill:#CEC4C0;" d="
									M4097.198,2043.812c0,1044.593-846.81,1891.403-1891.403,1891.403c-522.297,0-995.147-211.703-1337.424-553.979
									c-5.348-5.348-10.664-10.728-15.948-16.14c-2.642-2.706-5.276-5.419-7.902-8.141h3.942V855.439h2824.031v-5.955
									c2.392,2.934,4.775,5.875,7.15,8.823c4.749,5.897,9.464,11.823,14.143,17.777c9.359,11.909,18.578,23.934,27.655,36.071
									c18.154,24.274,35.738,48.999,52.733,74.155c67.98,100.623,126.531,208.14,174.386,321.282
									C4044.272,1533.877,4097.198,1782.664,4097.198,2043.812z"/>
								<path style="clip-path:url(#SVGID_00000086672157413861243020000012383628344354533003_);fill:#CFC5C1;" d="
									M4067.176,2043.812c0,1028.012-833.368,1861.38-1861.38,1861.38c-514.006,0-979.351-208.342-1316.195-545.186
									c-10.526-10.526-20.927-21.178-31.2-31.953c-5.136-5.387-10.241-10.806-15.313-16.254h5.376V855.439h2786.525v-4.235
									c2.388,2.858,4.767,5.724,7.138,8.597c37.934,45.965,73.704,93.782,107.154,143.295
									c66.901,99.026,124.522,204.836,171.618,316.182C4015.09,1541.971,4067.176,1786.809,4067.176,2043.812z"/>
								<path style="clip-path:url(#SVGID_00000086672157413861243020000012383628344354533003_);fill:#D0C6C2;" d="
									M4037.154,2043.812c0,1011.431-819.927,1831.358-1831.358,1831.358c-505.716,0-963.555-204.982-1294.966-536.392
									c-20.713-20.713-40.932-41.92-60.639-63.602c-2.463-2.71-4.919-5.428-7.366-8.153h5.638V855.439h2749.28v-1.786
									c2.382,2.784,4.756,5.574,7.122,8.372c4.731,5.596,9.43,11.22,14.095,16.873c37.322,45.224,72.515,92.27,105.426,140.984
									c65.822,97.429,122.514,201.532,168.85,311.083C3985.908,1550.065,4037.154,1790.954,4037.154,2043.812z"/>
								<path style="clip-path:url(#SVGID_00000086672157413861243020000012383628344354533003_);fill:#D1C7C3;" d="
									M4007.131,2043.812c0,994.85-806.486,1801.336-1801.336,1801.336c-497.425,0-947.759-201.621-1273.737-527.599
									c-20.374-20.374-40.261-41.233-59.645-62.559c-9.692-10.663-19.257-21.443-28.694-32.337h4.744V864.972h-4.744
									c4.719-5.447,9.469-10.866,14.252-16.255v6.723h2695.648v-6.723c4.782,5.39,9.533,10.808,14.251,16.255
									c9.437,10.894,18.745,21.903,27.923,33.023c36.71,44.482,71.326,90.757,103.698,138.673
									c64.742,95.832,120.506,198.228,166.082,305.983C3956.726,1558.16,4007.131,1795.099,4007.131,2043.812z"/>
								<path style="clip-path:url(#SVGID_00000086672157413861243020000012383628344354533003_);fill:#D2C8C4;" d="
									M3977.109,2043.812c0,978.269-793.044,1771.313-1771.313,1771.313c-489.135,0-931.963-198.261-1252.508-518.806
									c-20.034-20.034-39.59-40.546-58.651-61.517c-9.53-10.485-18.936-21.085-28.216-31.798
									c-4.64-5.356-9.248-10.741-13.824-16.153c-2.288-2.706-4.568-5.419-6.841-8.139h2.707V908.911h-2.707
									c2.272-2.72,4.552-5.433,6.841-8.139c4.576-5.412,9.184-10.797,13.824-16.153c9.28-10.713,18.686-21.313,28.216-31.798
									v2.618h2622.317v-2.618c19.06,20.971,37.624,42.401,55.673,64.271c36.098,43.741,70.137,89.244,101.969,136.362
									c63.664,94.234,118.497,194.924,163.314,300.883C3927.544,1566.254,3977.109,1799.245,3977.109,2043.812z"/>
								<path style="clip-path:url(#SVGID_00000086672157413861243020000012383628344354533003_);fill:#D2C8C5;" d="
									M3947.087,2043.812c0,961.688-779.603,1741.291-1741.291,1741.291c-480.844,0-916.167-194.901-1231.279-510.012
									c-39.389-39.389-76.9-80.656-112.386-123.656c-4.436-5.375-8.84-10.777-13.212-16.206c-2.186-2.714-4.364-5.435-6.534-8.163
									h6.08V960.558h-6.08c2.17-2.728,4.348-5.449,6.534-8.163c4.372-5.429,8.776-10.831,13.212-16.206
									c17.743-21.5,35.992-42.567,54.73-63.182c4.684-5.154,9.399-10.279,14.144-15.377c2.372-2.548,4.753-5.09,7.14-7.624v5.433
									h2535.302v-5.433c2.387,2.534,4.768,5.076,7.14,7.624c4.745,5.097,9.46,10.223,14.144,15.377
									c18.737,20.615,36.986,41.682,54.729,63.182c35.487,43,68.949,87.732,100.241,134.05
									c62.584,92.637,116.489,191.621,160.546,295.783C3898.362,1574.348,3947.087,1803.39,3947.087,2043.812z"/>
								<path style="clip-path:url(#SVGID_00000086672157413861243020000012383628344354533003_);fill:#D3C9C6;" d="
									M3917.064,2043.812c0,945.108-766.161,1711.269-1711.269,1711.269c-472.554,0-900.371-191.54-1210.05-501.219
									c-38.71-38.71-75.574-79.266-110.448-121.524c-8.719-10.565-17.313-21.236-25.781-32.011
									c-4.234-5.387-8.436-10.801-12.607-16.24h1.554V1003.537h-1.554c4.17-5.439,8.373-10.853,12.607-16.241
									c8.468-10.775,17.062-21.446,25.781-32.011c17.437-21.129,35.372-41.833,53.786-62.093
									c9.207-10.13,18.534-20.149,27.978-30.055c2.361-2.477,4.73-4.946,7.105-7.408c1.188-1.231,2.378-2.461,3.569-3.688v3.397
									h2456.119v-3.397c1.191,1.228,2.381,2.457,3.569,3.688c2.376,2.462,4.744,4.932,7.105,7.408
									c9.444,9.906,18.771,19.925,27.978,30.055c18.414,20.26,36.349,40.963,53.786,62.093
									c34.875,42.258,67.76,86.219,98.513,131.739c61.505,91.04,114.48,188.317,157.778,290.684
									C3869.179,1582.442,3917.064,1807.535,3917.064,2043.812z"/>
								<path style="clip-path:url(#SVGID_00000086672157413861243020000012383628344354533003_);fill:#D4CAC7;" d="
									M3887.042,2043.812c0,928.527-752.72,1681.247-1681.247,1681.247c-464.264,0-884.575-188.18-1188.821-492.426
									c-38.031-38.031-74.248-77.875-108.511-119.392c-17.131-20.759-33.774-41.935-49.911-63.512
									c-4.034-5.394-8.037-10.814-12.007-16.258h1.918V1054.153h-1.918c3.971-5.444,7.973-10.863,12.007-16.258
									c16.137-21.577,32.779-42.754,49.911-63.512c34.263-41.517,70.48-81.361,108.511-119.392v0.448h2377.642v-0.448
									C3698.862,1159.237,3887.042,1579.548,3887.042,2043.812z"/>
								<path style="clip-path:url(#SVGID_00000086672157413861243020000012383628344354533003_);fill:#D5CBC8;" d="
									M3857.02,2043.812c0,911.946-739.278,1651.224-1651.224,1651.224c-455.973,0-868.779-184.82-1167.592-483.632
									c-37.352-37.352-72.922-76.484-106.573-117.26c-16.826-20.388-33.171-41.186-49.02-62.378
									c-7.924-10.596-15.724-21.29-23.398-32.081c-3.837-5.395-7.642-10.814-11.415-16.258h0.666V1104.196h-0.666
									c3.773-5.443,7.578-10.862,11.415-16.258c7.674-10.791,15.473-21.485,23.398-32.081
									c15.848-21.192,32.194-41.99,49.02-62.378c33.651-40.776,69.221-79.908,106.573-117.26
									c9.338-9.338,18.787-18.564,28.345-27.678v6.897h2278.493v-6.897c9.558,9.113,19.008,18.34,28.345,27.678
									C3672.2,1175.033,3857.02,1587.839,3857.02,2043.812z"/>
								<path style="clip-path:url(#SVGID_00000086672157413861243020000012383628344354533003_);fill:#D6CCC9;" d="
									M3826.998,2043.812c0,895.365-725.837,1621.202-1621.202,1621.202c-447.683,0-852.983-181.459-1146.363-474.839
									c-73.345-73.345-139.695-153.685-197.963-239.934c-3.642-5.39-7.252-10.804-10.83-16.24
									c-1.789-2.718-3.57-5.442-5.344-8.172h3.168V1161.795h-3.168c1.773-2.73,3.554-5.453,5.344-8.172
									c3.578-5.436,7.189-10.85,10.83-16.241c58.268-86.249,124.618-166.589,197.963-239.934
									c9.168-9.168,18.446-18.227,27.83-27.174c4.692-4.474,9.411-8.92,14.157-13.337c2.373-2.209,4.752-4.411,7.138-6.606v5.107
									h2194.475v-5.107c2.386,2.195,4.765,4.397,7.138,6.606c4.746,4.418,9.465,8.864,14.157,13.337
									c9.385,8.947,18.662,18.006,27.83,27.174C3645.539,1190.829,3826.998,1596.129,3826.998,2043.812z"/>
								<path style="clip-path:url(#SVGID_00000086672157413861243020000012383628344354533003_);fill:#D6CDCA;" d="
									M3796.976,2043.812c0,878.784-712.396,1591.18-1591.18,1591.18c-439.392,0-837.187-178.099-1125.134-466.046
									c-71.987-71.987-137.108-150.839-194.297-235.49c-14.297-21.163-28.099-42.688-41.388-64.559h3.488V1218.727h-3.488
									c13.289-21.871,27.091-43.396,41.388-64.559c57.189-84.651,122.31-163.504,194.297-235.49
									c17.997-17.997,36.422-35.564,55.261-52.686c4.71-4.281,9.445-8.533,14.206-12.758v2.205h2111.335v-2.205
									c4.761,4.224,9.496,8.477,14.206,12.758c18.838,17.122,37.264,34.689,55.261,52.686
									C3618.877,1206.625,3796.976,1604.42,3796.976,2043.812z"/>
								<path style="clip-path:url(#SVGID_00000086672157413861243020000012383628344354533003_);fill:#D7CECB;" d="
									M3766.953,2043.812c0,862.203-698.954,1561.157-1561.157,1561.157c-431.102,0-821.391-174.738-1103.905-457.252
									c-70.629-70.628-134.521-147.993-190.631-231.047c-14.028-20.763-27.569-41.883-40.607-63.341
									c-6.519-10.729-12.913-21.543-19.178-32.44c-3.133-5.448-6.234-10.917-9.303-16.407h6.293v-1521.34h-6.293
									c3.069-5.49,6.17-10.958,9.303-16.407c6.266-10.897,12.659-21.711,19.178-32.44c13.039-21.458,26.58-42.578,40.607-63.341
									c56.11-83.054,120.003-160.419,190.631-231.047c17.657-17.657,35.735-34.893,54.218-51.692
									c9.241-8.399,18.584-16.689,28.026-24.868c4.721-4.089,9.466-8.151,14.237-12.184v4.277h2014.85v-4.277
									c4.77,4.033,9.516,8.095,14.237,12.184c9.442,8.179,18.784,16.469,28.026,24.868c18.483,16.799,36.561,34.035,54.218,51.692
									C3592.215,1222.421,3766.953,1612.71,3766.953,2043.812z"/>
								<path style="clip-path:url(#SVGID_00000086672157413861243020000012383628344354533003_);fill:#D8CFCC;" d="
									M3736.931,2043.812c0,845.623-685.513,1531.135-1531.135,1531.135c-422.811,0-805.595-171.378-1082.676-448.459
									c-69.27-69.27-131.934-145.147-186.965-226.604c-27.516-40.729-53.123-82.852-76.694-126.242
									c-5.893-10.848-11.658-21.774-17.294-32.778h6.298V1346.76h-6.298c5.636-11.004,11.402-21.931,17.294-32.778
									c23.571-43.39,49.178-85.514,76.694-126.242c55.031-81.457,117.695-157.334,186.965-226.604
									c34.635-34.635,70.922-67.619,108.732-98.822c4.726-3.9,9.476-7.773,14.25-11.618v4.743H3165.49v-4.743
									c4.773,3.845,9.524,7.717,14.25,11.618c37.81,31.204,74.097,64.187,108.732,98.822
									C3565.553,1238.217,3736.931,1621.001,3736.931,2043.812z"/>
								<path style="clip-path:url(#SVGID_00000086672157413861243020000012383628344354533003_);fill:#D9D0CD;" d="
									M3706.909,2043.812c0,829.042-672.071,1501.113-1501.113,1501.113c-414.521,0-789.799-168.018-1061.447-439.666
									c-67.912-67.912-129.347-142.301-183.299-222.161c-26.976-39.93-52.082-81.228-75.19-123.767
									c-11.554-21.27-22.61-42.85-33.15-64.725c-2.635-5.469-5.238-10.956-7.809-16.461h3.564V1409.479H844.9
									c2.57-5.505,5.173-10.993,7.809-16.461c10.541-21.875,21.596-43.455,33.15-64.725c23.109-42.54,48.214-83.837,75.19-123.767
									c53.952-79.86,115.387-154.249,183.299-222.161c33.956-33.956,69.531-66.293,106.6-96.885
									c9.267-7.648,18.628-15.187,28.08-22.615c4.726-3.714,9.475-7.4,14.246-11.058v3.632h1825.043v-3.632
									c4.771,3.658,9.52,7.344,14.246,11.058c9.452,7.428,18.813,14.967,28.08,22.615c37.069,30.592,72.644,62.929,106.6,96.885
									C3538.891,1254.013,3706.909,1629.291,3706.909,2043.812z"/>
								<path style="clip-path:url(#SVGID_00000086672157413861243020000012383628344354533003_);fill:#D9D1CE;" d="
									M3676.886,2043.812c0,812.461-658.63,1471.091-1471.091,1471.091c-406.231,0-774.003-164.657-1040.219-430.873
									c-133.107-133.108-240.826-291.604-315.267-467.603c-2.326-5.5-4.62-11.017-6.881-16.551h5.034V1487.748h-5.034
									c2.261-5.534,4.555-11.051,6.881-16.551c74.441-175.999,182.159-334.496,315.267-467.603
									c33.277-33.277,68.141-64.967,104.468-94.947c18.164-14.99,36.693-29.552,55.573-43.672
									c4.72-3.53,9.462-7.032,14.226-10.506v0.971h1731.903v-0.971c4.763,3.474,9.505,6.977,14.225,10.506
									c18.88,14.12,37.41,28.682,55.573,43.672c36.327,29.98,71.191,61.67,104.468,94.947
									C3512.229,1269.809,3676.886,1637.581,3676.886,2043.812z"/>
								<path style="clip-path:url(#SVGID_00000086672157413861243020000012383628344354533003_);fill:#DAD2CF;" d="
									M3646.864,2043.812c0,795.88-645.188,1441.069-1441.068,1441.069c-397.94,0-758.207-161.297-1018.99-422.079
									c-130.391-130.391-235.911-285.653-308.833-458.06c-9.115-21.551-17.721-43.37-25.803-65.441
									c-2.02-5.518-4.008-11.052-5.963-16.601h2.256v-957.774h-2.256c1.955-5.549,3.942-11.083,5.963-16.601
									c8.081-22.072,16.687-43.89,25.803-65.441c72.922-172.407,178.442-327.669,308.833-458.06
									c65.196-65.196,136.609-124.173,213.274-175.967v6.584h1611.43v-6.584c76.665,51.794,148.079,110.772,213.274,175.967
									C3485.567,1285.605,3646.864,1645.872,3646.864,2043.812z"/>
								<path style="clip-path:url(#SVGID_00000086672157413861243020000012383628344354533003_);fill:#DBD3D0;" d="
									M3616.842,2043.812c0,779.299-631.747,1411.046-1411.046,1411.046c-389.65,0-742.411-157.937-997.76-413.286
									c-127.675-127.675-230.996-279.702-302.399-448.518c-17.851-42.204-33.706-85.457-47.449-129.641
									c-3.436-11.046-6.739-22.15-9.909-33.311h0.186v-772.583h-0.186c3.17-11.161,6.473-22.265,9.909-33.311
									c13.743-44.184,29.598-87.437,47.449-129.641c71.403-168.815,174.724-320.843,302.399-448.518
									c63.837-63.837,133.763-121.586,208.831-172.301c9.384-6.339,18.847-12.569,28.39-18.687v0.375h1521.079v-0.375
									c9.542,6.118,19.006,12.347,28.39,18.687c75.068,50.715,144.994,108.464,208.831,172.301
									C3458.905,1301.401,3616.842,1654.162,3616.842,2043.812z"/>
								<path style="clip-path:url(#SVGID_00000086672157413861243020000012383628344354533003_);fill:#DCD4D1;" d="
									M3586.82,2043.812c0,762.719-618.305,1381.024-1381.024,1381.024c-381.359,0-726.615-154.576-976.531-404.492
									c-124.958-124.958-226.081-273.751-295.965-438.975c-34.942-82.612-62.074-169.331-80.47-259.232
									c-2.3-11.238-4.463-22.525-6.487-33.86h2.122v-488.928h-2.122c2.025-11.335,4.188-22.623,6.487-33.86
									c18.396-89.901,45.528-176.621,80.47-259.232c69.884-165.224,171.007-314.016,295.965-438.975
									c62.479-62.479,130.917-118.999,204.388-168.635c18.368-12.409,37.05-24.388,56.032-35.922
									c4.746-2.883,9.51-5.739,14.293-8.567v1.283h1403.637v-1.283c4.783,2.828,9.547,5.683,14.293,8.567
									c18.982,11.534,37.665,23.513,56.032,35.922c73.471,49.636,141.909,106.156,204.388,168.635
									C3432.243,1317.197,3586.82,1662.453,3586.82,2043.812z"/>
								<path style="clip-path:url(#SVGID_00000086672157413861243020000012383628344354533003_);fill:#DDD5D2;" d="
									M3556.797,2043.812c0,746.138-604.864,1351.002-1351.002,1351.002S854.794,2789.95,854.794,2043.812
									c0-373.069,151.216-710.819,395.699-955.303c61.121-61.121,128.071-116.412,199.945-164.969
									c35.937-24.279,73.105-46.873,111.39-67.671c2.393-1.3,4.79-2.593,7.192-3.879v3.449h1273.552v-3.449
									c2.402,1.286,4.799,2.579,7.192,3.879c38.286,20.798,75.453,43.393,111.39,67.671
									c71.874,48.557,138.824,103.848,199.945,164.969C3405.581,1332.993,3556.797,1670.743,3556.797,2043.812z"/>
								<path style="clip-path:url(#SVGID_00000086672157413861243020000012383628344354533003_);fill:#DDD6D3;" d="
									M3526.775,2043.812c0,729.557-591.423,1320.979-1320.979,1320.979s-1320.98-591.423-1320.98-1320.979
									c0-364.779,147.856-695.023,386.906-934.074c59.762-59.763,125.225-113.826,195.501-161.303
									c35.138-23.739,71.48-45.832,108.915-66.167c18.717-10.168,37.708-19.897,56.958-29.172v2.344h1145.399v-2.344
									c19.25,9.276,38.241,19.004,56.958,29.172c37.435,20.336,73.777,42.428,108.915,66.167
									c70.276,47.478,135.739,101.541,195.501,161.303C3378.919,1348.789,3526.775,1679.033,3526.775,2043.812z"/>
								<path style="clip-path:url(#SVGID_00000086672157413861243020000012383628344354533003_);fill:#DED7D4;" d="
									M3496.753,2043.812c0,712.976-577.981,1290.957-1290.957,1290.957S914.838,2756.788,914.838,2043.812
									c0-356.488,144.495-679.227,378.113-912.845c116.809-116.809,255.898-211.337,410.346-276.663v1.135h1004.998v-1.135
									c154.448,65.326,293.537,159.854,410.346,276.663C3352.258,1364.585,3496.753,1687.324,3496.753,2043.812z"/>
								<path style="clip-path:url(#SVGID_00000086672157413861243020000012383628344354533003_);fill:#DFD8D5;" d="
									M3466.731,2043.812c0,696.395-564.54,1260.935-1260.935,1260.935S944.86,2740.207,944.86,2043.812
									c0-348.198,141.135-663.431,369.319-891.616c114.092-114.092,249.947-206.422,400.803-270.229
									c18.857-7.976,37.948-15.506,57.261-22.577c9.656-3.536,19.368-6.957,29.133-10.261v6.31h808.837v-6.31
									c9.765,3.305,19.477,6.725,29.133,10.261c19.313,7.071,38.404,14.601,57.261,22.577
									c150.856,63.807,286.711,156.137,400.803,270.229C3325.596,1380.381,3466.731,1695.614,3466.731,2043.812z"/>
								<path style="clip-path:url(#SVGID_00000086672157413861243020000012383628344354533003_);fill:#E0D9D6;" d="
									M3436.708,2043.812c0,679.814-551.098,1230.913-1230.913,1230.913S974.883,2723.626,974.883,2043.812
									c0-339.907,137.775-647.635,360.526-870.387c111.376-111.376,243.996-201.507,391.26-263.795
									c36.816-15.572,74.547-29.403,113.091-41.392c19.272-5.994,38.747-11.527,58.411-16.587v3.787h615.249v-3.787
									c19.665,5.06,39.14,10.593,58.411,16.587c38.544,11.988,76.275,25.82,113.091,41.392
									c147.264,62.288,279.884,152.419,391.26,263.795C3298.934,1396.177,3436.708,1703.905,3436.708,2043.812z"/>
								<path style="clip-path:url(#SVGID_00000086672157413861243020000012383628344354533003_);fill:#E0DAD7;" d="
									M3406.686,2043.812c0,663.233-537.657,1200.89-1200.89,1200.89s-1200.891-537.657-1200.891-1200.89
									c0-331.617,134.414-631.839,351.733-849.158c108.659-108.659,238.045-196.592,381.717-257.361
									c71.836-30.384,147.244-53.977,225.419-69.974c39.088-7.998,78.867-14.098,119.237-18.198v6.318h245.568v-6.318
									c40.371,4.1,80.15,10.199,119.237,18.198c78.175,15.997,153.583,39.59,225.419,69.974
									c143.673,60.768,273.058,148.701,381.717,257.361C3272.272,1411.973,3406.686,1712.195,3406.686,2043.812z"/>
								
									<circle style="clip-path:url(#SVGID_00000086672157413861243020000012383628344354533003_);fill:#E1DBD8;" cx="2205.796" cy="2043.812" r="1170.868"/>
								
									<circle style="clip-path:url(#SVGID_00000086672157413861243020000012383628344354533003_);fill:#E2DCD9;" cx="2205.796" cy="2043.812" r="1140.846"/>
								
									<circle style="clip-path:url(#SVGID_00000086672157413861243020000012383628344354533003_);fill:#E3DDDA;" cx="2205.796" cy="2043.812" r="1110.824"/>
								
									<circle style="clip-path:url(#SVGID_00000086672157413861243020000012383628344354533003_);fill:#E4DEDB;" cx="2205.796" cy="2043.812" r="1080.801"/>
								
									<circle style="clip-path:url(#SVGID_00000086672157413861243020000012383628344354533003_);fill:#E4DEDD;" cx="2205.796" cy="2043.812" r="1050.779"/>
								
									<circle style="clip-path:url(#SVGID_00000086672157413861243020000012383628344354533003_);fill:#E5DFDE;" cx="2205.796" cy="2043.812" r="1020.757"/>
								
									<circle style="clip-path:url(#SVGID_00000086672157413861243020000012383628344354533003_);fill:#E6E0DF;" cx="2205.796" cy="2043.812" r="990.735"/>
								
									<circle style="clip-path:url(#SVGID_00000086672157413861243020000012383628344354533003_);fill:#E7E1E0;" cx="2205.796" cy="2043.812" r="960.712"/>
								
									<circle style="clip-path:url(#SVGID_00000086672157413861243020000012383628344354533003_);fill:#E8E2E1;" cx="2205.796" cy="2043.812" r="930.69"/>
								
									<circle style="clip-path:url(#SVGID_00000086672157413861243020000012383628344354533003_);fill:#E8E3E2;" cx="2205.796" cy="2043.812" r="900.668"/>
								
									<circle style="clip-path:url(#SVGID_00000086672157413861243020000012383628344354533003_);fill:#E9E4E3;" cx="2205.796" cy="2043.812" r="870.646"/>
								
									<circle style="clip-path:url(#SVGID_00000086672157413861243020000012383628344354533003_);fill:#EAE5E4;" cx="2205.796" cy="2043.812" r="840.623"/>
								
									<circle style="clip-path:url(#SVGID_00000086672157413861243020000012383628344354533003_);fill:#EBE6E5;" cx="2205.796" cy="2043.812" r="810.601"/>
								
									<circle style="clip-path:url(#SVGID_00000086672157413861243020000012383628344354533003_);fill:#EBE7E6;" cx="2205.796" cy="2043.812" r="780.579"/>
								
									<circle style="clip-path:url(#SVGID_00000086672157413861243020000012383628344354533003_);fill:#ECE8E7;" cx="2205.796" cy="2043.812" r="750.557"/>
								
									<circle style="clip-path:url(#SVGID_00000086672157413861243020000012383628344354533003_);fill:#EDE9E8;" cx="2205.796" cy="2043.812" r="720.534"/>
								
									<circle style="clip-path:url(#SVGID_00000086672157413861243020000012383628344354533003_);fill:#EEEAE9;" cx="2205.796" cy="2043.812" r="690.512"/>
								
									<circle style="clip-path:url(#SVGID_00000086672157413861243020000012383628344354533003_);fill:#EFEBEA;" cx="2205.796" cy="2043.812" r="660.49"/>
								
									<circle style="clip-path:url(#SVGID_00000086672157413861243020000012383628344354533003_);fill:#EFECEB;" cx="2205.796" cy="2043.812" r="630.468"/>
								
									<circle style="clip-path:url(#SVGID_00000086672157413861243020000012383628344354533003_);fill:#F0EDEC;" cx="2205.796" cy="2043.812" r="600.445"/>
								
									<circle style="clip-path:url(#SVGID_00000086672157413861243020000012383628344354533003_);fill:#F1EEED;" cx="2205.796" cy="2043.812" r="570.423"/>
								
									<circle style="clip-path:url(#SVGID_00000086672157413861243020000012383628344354533003_);fill:#F2EFEE;" cx="2205.796" cy="2043.812" r="540.401"/>
								
									<circle style="clip-path:url(#SVGID_00000086672157413861243020000012383628344354533003_);fill:#F2F0EF;" cx="2205.796" cy="2043.812" r="510.378"/>
								
									<circle style="clip-path:url(#SVGID_00000086672157413861243020000012383628344354533003_);fill:#F3F1F0;" cx="2205.796" cy="2043.812" r="480.356"/>
								
									<circle style="clip-path:url(#SVGID_00000086672157413861243020000012383628344354533003_);fill:#F4F2F1;" cx="2205.796" cy="2043.812" r="450.334"/>
								
									<circle style="clip-path:url(#SVGID_00000086672157413861243020000012383628344354533003_);fill:#F5F3F2;" cx="2205.796" cy="2043.812" r="420.312"/>
								
									<circle style="clip-path:url(#SVGID_00000086672157413861243020000012383628344354533003_);fill:#F6F4F3;" cx="2205.796" cy="2043.812" r="390.289"/>
								
									<circle style="clip-path:url(#SVGID_00000086672157413861243020000012383628344354533003_);fill:#F6F4F4;" cx="2205.796" cy="2043.812" r="360.267"/>
								
									<circle style="clip-path:url(#SVGID_00000086672157413861243020000012383628344354533003_);fill:#F7F5F5;" cx="2205.796" cy="2043.812" r="330.245"/>
								
									<circle style="clip-path:url(#SVGID_00000086672157413861243020000012383628344354533003_);fill:#F8F6F6;" cx="2205.796" cy="2043.812" r="300.223"/>
								
									<circle style="clip-path:url(#SVGID_00000086672157413861243020000012383628344354533003_);fill:#F9F7F7;" cx="2205.796" cy="2043.812" r="270.2"/>
								
									<circle style="clip-path:url(#SVGID_00000086672157413861243020000012383628344354533003_);fill:#FAF8F8;" cx="2205.796" cy="2043.812" r="240.178"/>
								
									<ellipse transform="matrix(0.7071 -0.7071 0.7071 0.7071 -799.1307 2158.3516)" style="clip-path:url(#SVGID_00000086672157413861243020000012383628344354533003_);fill:#FAF9F9;" cx="2205.796" cy="2043.812" rx="210.156" ry="210.156"/>
								
									<ellipse transform="matrix(0.7071 -0.7071 0.7071 0.7071 -799.1307 2158.3516)" style="clip-path:url(#SVGID_00000086672157413861243020000012383628344354533003_);fill:#FBFAFA;" cx="2205.796" cy="2043.812" rx="180.134" ry="180.134"/>
								
									<circle style="clip-path:url(#SVGID_00000086672157413861243020000012383628344354533003_);fill:#FCFBFB;" cx="2205.796" cy="2043.812" r="150.111"/>
								
									<ellipse transform="matrix(0.7071 -0.7071 0.7071 0.7071 -799.1307 2158.3516)" style="clip-path:url(#SVGID_00000086672157413861243020000012383628344354533003_);fill:#FDFCFC;" cx="2205.796" cy="2043.812" rx="120.089" ry="120.089"/>
								
									<circle style="clip-path:url(#SVGID_00000086672157413861243020000012383628344354533003_);fill:#FDFDFD;" cx="2205.796" cy="2043.812" r="90.067"/>
								
									<ellipse transform="matrix(0.2298 -0.9732 0.9732 0.2298 -290.1306 3721.0281)" style="clip-path:url(#SVGID_00000086672157413861243020000012383628344354533003_);fill:#FEFEFE;" cx="2205.796" cy="2043.812" rx="60.045" ry="60.045"/>
								
									<ellipse transform="matrix(0.2298 -0.9732 0.9732 0.2298 -290.1309 3721.0276)" style="clip-path:url(#SVGID_00000086672157413861243020000012383628344354533003_);fill:#FFFFFF;" cx="2205.796" cy="2043.812" rx="30.022" ry="30.022"/>
							</g>
						</g>
						<g>
							<path style="fill:#5B4848;" d="M2577.29,4126.794c-47.176,0.001-91.91-2.219-133.412-6.63
								c-65.661-6.979-123.413-19.5-171.652-37.217c-46.028-16.904-118.306-46.711-201.249-92.712
								c-89.525-49.649-170.718-106.618-241.326-169.323c-87.493-77.7-158.335-164.044-210.557-256.631
								c-61.541-109.109-97.946-228.316-108.204-354.311c-10.556-129.666,3.767-257.064,42.572-378.654
								c35.72-111.924,92.27-219.438,168.081-319.558c69.953-92.383,155.708-177.835,254.885-253.98
								c92.678-71.156,194.741-132.518,303.353-182.38c100.762-46.258,211.787-77.531,329.991-92.951
								c108.721-14.183,223.343-14.997,340.687-2.419c212.108,22.736,427.883,89.05,607.574,186.728
								c144.834,78.729,266.283,153.353,363.87,213.314c64.331,39.528,115.144,70.749,154.14,91.792
								c38.688,20.876,62.954,29.928,72.149,26.909c3.938-1.299,8.174,0.846,9.468,4.78c1.295,3.935-0.846,8.174-4.78,9.468
								c-27.035,8.9-92.755-30.414-238.829-120.168c-97.436-59.868-218.697-134.376-363.182-212.916
								c-206.677-112.346-485.281-192.869-765.093-192.869c-171.546,0-343.508,30.243-499.736,101.965
								c-396.745,182.139-804.795,571.939-760.198,1119.724c45.482,558.674,586.747,799.584,751.555,860.113
								c106.774,39.215,242.109,44.745,336.846,42.479c102.972-2.463,181.569-14.423,182.352-14.543
								c4.094-0.632,7.924,2.176,8.555,6.27c0.632,4.093-2.175,7.924-6.269,8.555c-0.79,0.122-80.174,12.211-184.068,14.71
								C2602.148,4126.643,2589.635,4126.794,2577.29,4126.794z"/>
						</g>
						<g>
							<path style="fill:#7F6767;" d="M876.925,2717.796c-1.157,0-2.196-0.808-2.444-1.984
								c-26.366-125.131-31.335-254.367-14.768-384.119c14.57-114.106,46.237-231.86,94.121-349.993
								c94.432-232.967,238.245-433.784,338.204-564.57c55.123-72.123,124.078-140.651,204.948-203.68
								c80.856-63.018,172.222-119.446,271.56-167.717c208.002-101.075,442.309-162.125,677.588-176.55
								c1.362-0.095,2.564,0.963,2.648,2.342c0.084,1.378-0.964,2.564-2.342,2.648c-467.256,28.648-918.826,242.963-1150.43,545.993
								c-232,303.547-527.601,768.003-416.638,1294.614c0.285,1.352-0.58,2.678-1.931,2.962
								C877.269,2717.778,877.096,2717.796,876.925,2717.796z"/>
						</g>
						<g>
							
								<ellipse transform="matrix(0.8256 -0.5642 0.5642 0.8256 -635.5133 1483.699)" style="fill:#FFFFFF;" cx="2082.596" cy="1769.993" rx="1033.322" ry="696.221"/>
						</g>
						<g>
							<path style="fill:#E21717;" d="M3225.247,2027.555c-0.009-0.229-1.053-23.777-17.199-92.533
								c-14.285-60.826-37.419-77.282-37.65-77.441c0.424,0.291,0.66,0.408,0.66,0.408l22.76-38.819
								c3.946,2.313,39.103,24.934,58.039,105.564c17.316,73.74,18.317,99.022,18.375,101.662l-44.99,0.973L3225.247,2027.555z"/>
						</g>
						<g>
							<path style="fill:#E21717;" d="M3101.431,1984.919l-43.227-12.51c0,0-0.148,0.368-0.293,1.165
								c0.038-0.213,3.636-22.063-17.08-80.38c-21.164-59.579-40.825-77.862-41.021-78.04c0.267,0.241,0.41,0.348,0.41,0.348
								l28.598-34.744c2.868,2.36,28.763,25.149,54.418,97.374C3108.341,1948.807,3103.51,1977.736,3101.431,1984.919z"/>
						</g>
						<g>
							<path style="fill:#F42A2A;" d="M2893.496,1963.47c-0.042-0.223-4.484-23.013-31.629-87.246
								c-24.187-57.231-52.199-69.496-52.479-69.613c0.387,0.162,0.594,0.221,0.594,0.221l14.924-42.453
								c4.634,1.629,46.205,18.116,78.413,94.328c29.447,69.682,34.095,94.544,34.527,97.15l-44.391,7.377L2893.496,1963.47z"/>
						</g>
						<g>
							<path style="fill:#E21717;" d="M2962.22,2207.808c-1.562,0-3.146-0.163-4.735-0.503
								c-12.15-2.603-19.891-14.563-17.288-26.713c0.03-0.149,4.884-24.308,7.402-88.515c2.203-56.182-6.854-79.102-6.954-79.349
								c0.106,0.259,0.169,0.385,0.169,0.385l41-18.546c1.38,3.049,13.398,31.74,10.75,99.274
								c-2.712,69.131-8.136,95.104-8.365,96.176C2981.936,2200.578,2972.603,2207.808,2962.22,2207.808z"/>
						</g>
						<g>
							<path style="fill:#E21717;" d="M3115.982,2216.552l-40.461-19.697l-0.121,0.254c0.08-0.175,8.16-18.176,20.768-75.722
								c12.012-54.824,7.095-78.643,7.043-78.877c0.063,0.29,0.106,0.432,0.106,0.432l43.557-11.306
								c0.834,3.213,7.73,33.299-6.749,99.382C3126.209,2194.538,3116.987,2214.487,3115.982,2216.552z"/>
						</g>
						<g>
							<path style="fill:#C10618;" d="M3270.442,2263.776l-40.46-19.697l-0.122,0.254c0.08-0.175,8.159-18.176,20.768-75.722
								c12.012-54.825,7.095-78.644,7.043-78.878c0.063,0.29,0.106,0.432,0.106,0.432l43.557-11.305
								c0.834,3.213,7.729,33.299-6.749,99.382C3280.669,2241.761,3271.447,2261.71,3270.442,2263.776z"/>
						</g>
						<g>
							<path style="fill:#C10618;" d="M3398.141,2313.849l-29.199-19.297l-0.096,0.146c0.104-0.164,10.609-17.022,30.945-73.332
								c19.602-54.274,17.579-79.177,17.556-79.422l0.031,0.268l34.734-4.297c0.393,3.173,3.183,32.804-19.401,95.339
								C3410.819,2293.871,3399.374,2311.983,3398.141,2313.849z"/>
						</g>
						<g>
							<path style="fill:#C10618;" d="M3521.123,2380.186l-29.199-19.297l-0.096,0.146c0.104-0.164,10.609-17.022,30.945-73.332
								c19.602-54.274,17.579-79.177,17.556-79.422l0.031,0.268l34.735-4.296c0.392,3.173,3.182,32.804-19.403,95.339
								C3533.802,2360.207,3522.356,2378.32,3521.123,2380.186z"/>
						</g>
						<g>
							<path style="fill:#AF0019;" d="M3645.184,2439.492l-29.199-19.297l-0.096,0.146c0.104-0.164,10.609-17.022,30.945-73.332
								c19.601-54.274,17.579-79.177,17.556-79.422l0.03,0.268l34.736-4.295c0.392,3.173,3.181,32.804-19.402,95.338
								C3657.862,2419.514,3646.417,2437.626,3645.184,2439.492z"/>
						</g>
						<g>
							<path style="fill:#8C0018;" d="M3746.24,2492.83l-29.123-19.411l-0.077,0.117c0.093-0.144,9.507-14.959,29.302-63.577
								c18.917-46.459,19.046-67.134,19.045-67.337c0.001,0.201,0.008,0.301,0.008,0.301l34.975-1.345
								c0.103,2.666,0.367,27.604-21.611,81.58C3757.518,2475.325,3747.332,2491.192,3746.24,2492.83z"/>
						</g>
						<g>
							<path style="fill:#8C0018;" d="M3832.952,2547.682l-19.91-22.441c0,0-0.137,0.105-0.383,0.356
								c0.123-0.126,12.511-13.085,26.864-60.083c15.74-51.542,11.695-80.191,11.653-80.474l0.017,0.105l29.598-4.896
								c0.231,1.399,5.463,34.958-12.576,94.027C3851.422,2529.265,3835.895,2545.071,3832.952,2547.682z"/>
						</g>
						<g>
							<path style="fill:#8C0018;" d="M3929.705,2601.792c-3.871,0-7.741-1.489-10.676-4.462
								c-5.819-5.896-5.759-15.393,0.137-21.213c0.115-0.118,18.214-18.75,30.04-57.471c12.486-40.888,9.361-63.585,9.329-63.81
								l0.021,0.131l29.598-4.896c0.48,2.905,4.275,29.756-10.256,77.336c-14.214,46.543-36.705,69.12-37.655,70.059
								C3937.319,2600.353,3933.511,2601.792,3929.705,2601.792z"/>
						</g>
						<g>
							<path style="fill:#8C0018;" d="M4000.772,2644.157c-3.227,0-6.451-1.241-8.896-3.719c-4.851-4.912-4.799-12.827,0.114-17.677
								c0.14-0.142,18.635-19.1,30.674-58.521c12.773-41.824,4.206-85.192,4.118-85.625c-1.374-6.759,2.985-13.361,9.742-14.744
								c6.761-1.38,13.354,2.961,14.747,9.716c0.414,2.014,9.989,49.867-4.697,97.956c-14.032,45.945-36.089,68.089-37.021,69.009
								C4007.117,2642.957,4003.943,2644.157,4000.772,2644.157z"/>
						</g>
						<g>
							<path style="fill:#6B0118;" d="M4053.587,2683.077c-3.227,0-6.451-1.241-8.896-3.719c-4.851-4.912-4.799-12.827,0.114-17.677
								c0.14-0.142,18.635-19.1,30.674-58.521c12.604-41.271-3.143-93.707-3.304-94.231c-2.018-6.598,1.689-13.588,8.284-15.612
								c6.601-2.022,13.582,1.672,15.612,8.266c0.75,2.435,18.189,60.182,3.317,108.881c-14.031,45.945-36.089,68.089-37.021,69.009
								C4059.932,2681.877,4056.758,2683.077,4053.587,2683.077z"/>
						</g>
						<g>
							<path style="fill:#6B0118;" d="M4101.472,2707.489c-3.224,0-6.447-1.24-8.892-3.715c-4.839-4.896-4.805-12.78,0.064-17.636
								c0.283-0.289,14.372-14.802,25.876-44.541c1.715-4.392,3.339-9.096,4.842-14.018c8.62-28.282,3.916-61.722,0.345-79.136
								c-1.866-9.215-3.646-15.043-3.664-15.101c-2.027-6.594,1.669-13.59,8.262-15.623c6.593-2.036,13.583,1.651,15.623,8.242
								c0.087,0.279,2.146,6.97,4.275,17.488c4.043,19.712,9.307,57.844-0.929,91.424c-1.688,5.53-3.522,10.837-5.452,15.779
								c-13.642,35.268-30.84,52.511-31.565,53.227C4107.821,2706.288,4104.646,2707.489,4101.472,2707.489z"/>
						</g>
						<g>
							<path style="fill:#F42A2A;" d="M2718.688,1963.453c-0.064-0.19-6.825-19.581-39.035-71.423
								c-27.688-44.563-53.514-51.14-54.6-51.398c0.557,0.133,0.854,0.163,0.854,0.163l9.145-54.234
								c5.011,0.845,50.14,10.167,91.318,76.443c35.904,57.788,43.618,80.117,44.8,84.006l-52.625,15.989
								C2718.544,1962.999,2718.584,1963.147,2718.688,1963.453z"/>
						</g>
						<g>
							<path style="fill:#F42A2A;" d="M2534.499,1987.114c-0.065-0.19-6.826-19.581-39.036-71.423
								c-15.79-25.414-31.11-38.444-41.181-44.9c-7.135-4.574-12.529-6.33-12.566-6.336c-14.977-2.525-25.07-16.713-22.545-31.689
								c2.525-14.977,16.718-25.075,31.689-22.545c5.01,0.845,50.14,10.167,91.319,76.444c35.904,57.788,43.618,80.116,44.8,84.005
								l-52.625,15.989C2534.354,1986.659,2534.395,1986.808,2534.499,1987.114z"/>
						</g>
						<g>
							<path style="fill:#F42A2A;" d="M2661.442,2234.321c-11.761,0-22.646-7.604-26.279-19.432
								c-0.66-2.149-16.327-53.35-30.157-115.573c-13.833-62.23-11.118-88.969-10.434-93.697l54.432,7.883
								c0,0,0.033-0.178,0.072-0.545c-0.024,0.235-2.083,21.782,9.619,74.426c13.361,60.113,28.889,110.851,29.044,111.356
								c4.459,14.519-3.694,29.903-18.213,34.363C2666.837,2233.928,2664.116,2234.321,2661.442,2234.321z"/>
						</g>
						<g>
							<path style="fill:#F42A2A;" d="M2806.072,2217.175c-13.118,0-24.73-9.418-27.059-22.785
								c-0.35-2.007-8.635-49.829-14.925-108.261c-6.352-58.999-2.486-84.262-2.024-86.948l54.205,9.316l0.051-0.311
								c-0.03,0.207-3.015,21.274,2.452,72.056c6.089,56.561,14.343,104.237,14.426,104.712
								c2.604,14.962-7.414,29.204-22.376,31.808C2809.227,2217.041,2807.639,2217.175,2806.072,2217.175z"/>
						</g>
						<g>
							<path style="fill:#F42A2A;" d="M2493.033,2283.52c-10.838,0-21.11-6.448-25.465-17.1
								c-1.05-2.567-25.832-63.704-36.308-134.908c-11.307-76.851-2.796-91.079,0.408-96.435
								c7.797-13.035,24.684-17.28,37.717-9.483c11.528,6.896,16.181,20.903,11.708,33.065c-0.503,3.216-2.143,19.148,4.581,64.847
								c9.513,64.657,32.571,121.532,32.804,122.1c5.747,14.058-0.989,30.114-15.048,35.862
								C2500.023,2282.859,2496.499,2283.52,2493.033,2283.52z M2478.89,2063.274c-0.007,0.012-0.015,0.024-0.022,0.037
								C2478.875,2063.298,2478.883,2063.286,2478.89,2063.274z M2478.91,2063.24c-0.005,0.01-0.011,0.019-0.017,0.029
								C2478.899,2063.259,2478.904,2063.25,2478.91,2063.24z M2478.924,2063.217c-0.001,0.002-0.003,0.005-0.004,0.006
								C2478.921,2063.221,2478.922,2063.219,2478.924,2063.217z"/>
						</g>
						<g>
							<path style="fill:#F42A2A;" d="M2350.416,2341.45c-9.667,0-19.04-5.105-24.062-14.159
								c-1.259-2.27-31.053-56.385-49.996-125.79c-18.428-67.522-17.987-99.317-17.876-102.721l54.971,1.792l0.007-0.251
								c-0.004,0.268-0.202,27.487,15.958,86.699c17.124,62.739,44.765,113.107,45.042,113.608
								c7.344,13.285,2.54,30.017-10.74,37.371C2359.497,2340.338,2354.923,2341.45,2350.416,2341.45z"/>
						</g>
						<g>
							<path style="fill:#F42A2A;" d="M2211.259,2397.234c-8.565,0-17.001-3.989-22.369-11.485
								c-1.424-1.989-35.133-49.398-57.571-109.768c-21.6-58.117-22.477-85.932-22.433-90.918l54.998,0.481
								c0,0,0.006-0.153-0.001-0.461c0.005,0.221,0.748,22.655,18.99,71.737c19.787,53.238,50.441,96.498,50.748,96.928
								c8.815,12.356,5.96,29.528-6.389,38.354C2222.386,2395.567,2216.795,2397.234,2211.259,2397.234z"/>
						</g>
						<g>
							<path style="fill:#F42A2A;" d="M2082.594,2482.944c-6.097,0-12.172-2.464-16.61-7.321
								c-1.69-1.851-41.726-45.967-69.338-101.749c-26.781-54.101-28.639-79.974-28.74-84.611l44.989-0.976
								c0,0,0.004-0.174-0.02-0.527c0.014,0.202,1.631,20.761,24.099,66.15c24.708,49.912,61.87,90.963,62.243,91.372
								c8.365,9.181,7.714,23.41-1.462,31.781C2093.44,2481,2088.009,2482.944,2082.594,2482.944z"/>
						</g>
						<g>
							<path style="fill:#F42A2A;" d="M1969.209,2601.729c-6.087,0-12.154-2.456-16.591-7.3
								c-1.819-1.986-44.898-49.335-74.622-109.203c-28.772-57.951-30.773-85.488-30.882-90.42l44.989-0.993
								c0,0,0.003-0.163-0.018-0.493c0.014,0.22,1.716,22.549,26.216,71.894c26.811,54,67.106,98.389,67.51,98.831
								c8.378,9.17,7.745,23.399-1.419,31.783C1980.074,2599.779,1974.633,2601.729,1969.209,2601.729z"/>
						</g>
						<g>
							<path style="fill:#EF1837;" d="M1869.35,2723.678c-5.173,0-10.371-1.773-14.611-5.399
								c-2.047-1.75-50.562-43.513-87.342-99.323c-35.604-54.024-40.936-81.114-41.643-85.996l44.535-6.453
								c0,0-0.017-0.162-0.078-0.487c0.041,0.217,4.444,22.173,34.76,68.175c33.32,50.559,78.559,89.496,79.012,89.884
								c9.445,8.075,10.555,22.278,2.479,31.723C1882.011,2721.004,1875.699,2723.678,1869.35,2723.678z"/>
						</g>
						<g>
							<path style="fill:#B70023;" d="M1801.622,2850.21c-4.139,0-8.326-1.142-12.075-3.533
								c-2.271-1.449-56.122-36.059-100.306-86.213c-42.771-48.548-51.818-74.634-53.197-79.369l43.205-12.584
								c0,0-0.039-0.158-0.145-0.472c0.071,0.209,7.484,21.34,43.903,62.679c39.853,45.237,90.25,77.707,90.755,78.029
								c10.463,6.693,13.529,20.604,6.842,31.07C1816.31,2846.537,1809.044,2850.21,1801.622,2850.21z"/>
						</g>
						<g>
							<path style="fill:#B70023;" d="M1754.049,2962.001c-1.741,0-3.511-0.262-5.26-0.813c-2.88-0.907-71.06-22.813-116.353-74.226
								c-42.959-48.764-51.335-74.669-52.148-77.463l33.604-9.787c0,0-0.024-0.097-0.087-0.288
								c0.07,0.214,7.471,21.922,44.895,64.401c38.712,43.943,100.013,63.791,100.627,63.986
								c9.203,2.925,14.308,12.754,11.395,21.96C1768.362,2957.23,1761.475,2962.001,1754.049,2962.001z"/>
						</g>
						<g>
							<path style="fill:#B70023;" d="M1706.281,3079.436c-1.185,0-2.388-0.121-3.593-0.373
								c-2.763-0.576-68.15-14.545-110.816-51.44c-40.354-34.897-48.573-54.707-49.812-58.324l33.114-11.334
								c0,0-0.056-0.213-0.231-0.624c0.063,0.148,6.718,15.18,39.822,43.808c35.879,31.026,94.485,43.53,95.073,43.653
								c9.461,1.975,15.53,11.245,13.556,20.706C1721.671,3073.763,1714.394,3079.436,1706.281,3079.436z"/>
						</g>
						<g>
							<path style="fill:#B70023;" d="M1669.283,3207.338c-0.176,0-0.352-0.002-0.528-0.008
								c-2.505-0.074-61.851-2.114-104.977-27.782c-39.791-23.684-50.567-39.396-52.923-43.646l30.616-16.961
								c0,0-0.101-0.225-0.381-0.645c0.078,0.116,8.137,11.86,40.589,31.176c35.227,20.968,87.605,22.857,88.13,22.874
								c9.653,0.307,17.242,8.375,16.946,18.028C1686.465,3199.851,1678.7,3207.338,1669.283,3207.338z"/>
						</g>
						<g>
							<path style="fill:#B70023;" d="M1681.322,3340.367c-0.176,0-0.352-0.002-0.528-0.008
								c-2.505-0.074-61.851-2.114-104.977-27.782c-39.791-23.684-50.567-39.396-52.922-43.646l30.616-16.961
								c0,0-0.101-0.225-0.381-0.645c0.078,0.116,8.137,11.86,40.589,31.176c35.227,20.968,87.605,22.857,88.13,22.874
								c9.653,0.307,17.242,8.375,16.946,18.028C1698.504,3332.88,1690.739,3340.367,1681.322,3340.367z"/>
						</g>
						<g>
							<path style="fill:#B70023;" d="M1662.18,3472.64c-13.713,0-28.006-1.046-40.82-4.044
								c-37.435-8.761-49.953-18.183-54.083-23.02c-6.276-7.35-5.406-18.396,1.944-24.673c6.937-5.923,17.165-5.48,23.569,0.766
								c1.25,0.894,10.021,6.64,36.545,12.847c34.149,7.993,85.786-1.699,86.304-1.797c9.488-1.816,18.657,4.407,20.474,13.897
								c1.817,9.489-4.395,18.654-13.883,20.476C1720.567,3467.411,1692.834,3472.64,1662.18,3472.64z M1593.872,3422.824
								c0.006,0.008,0.014,0.016,0.02,0.023C1593.885,3422.84,1593.879,3422.832,1593.872,3422.824z M1593.853,3422.803
								c0.006,0.007,0.012,0.014,0.019,0.021C1593.865,3422.816,1593.859,3422.81,1593.853,3422.803z M1593.836,3422.783
								c0.004,0.005,0.009,0.01,0.013,0.016C1593.845,3422.793,1593.841,3422.788,1593.836,3422.783z"/>
						</g>
						<g>
							<path style="fill:#8E0018;" d="M1727.705,3605.002c-13.538,0-27.638-1.031-40.261-3.985
								c-38.111-8.919-49.587-18.502-52.752-22.209c-5.38-6.3-4.634-15.768,1.666-21.147c5.986-5.111,14.835-4.692,20.316,0.769
								c1.089,0.818,9.842,6.88,37.605,13.377c34.68,8.115,86.82-1.676,87.343-1.776c8.136-1.555,15.993,3.777,17.55,11.911
								c1.558,8.134-3.767,15.99-11.9,17.552C1785.623,3599.81,1758.081,3605.002,1727.705,3605.002z M1657.49,3559.308
								c0.005,0.007,0.011,0.013,0.016,0.02C1657.5,3559.32,1657.495,3559.314,1657.49,3559.308z M1657.475,3559.29
								c0.004,0.005,0.008,0.01,0.012,0.015C1657.482,3559.3,1657.479,3559.295,1657.475,3559.29z"/>
						</g>
						<g>
							<path style="fill:#8E0018;" d="M1782.903,3714.208c-5.457,0-10.78-0.229-15.828-0.748
								c-27.657-2.848-45.854-7.908-52.624-14.634c-5.877-5.839-5.909-15.336-0.07-21.213c5.388-5.423,13.893-5.87,19.792-1.316
								c1.437,0.754,9.88,4.634,35.975,7.321c34.753,3.576,89.035-9.849,89.579-9.985c8.036-2.007,16.18,2.875,18.191,10.911
								c2.011,8.035-2.87,16.178-10.904,18.191C1864.893,3703.267,1820.723,3714.208,1782.903,3714.208z M1735.579,3677.527
								c0.005,0.005,0.011,0.01,0.016,0.016C1735.589,3677.537,1735.584,3677.532,1735.579,3677.527z M1735.564,3677.513
								c0.004,0.004,0.008,0.008,0.012,0.012C1735.572,3677.521,1735.568,3677.517,1735.564,3677.513z"/>
						</g>
						<g>
							<path style="fill:#7A001A;" d="M1861.642,3817.316c-0.464,0-0.924-0.002-1.383-0.007c-27.339-0.277-44.4-3.121-50.711-8.45
								c-5.274-4.454-5.939-12.341-1.484-17.615c4.056-4.804,10.959-5.784,16.144-2.556c1.424,0.561,9.819,3.354,36.306,3.623
								c35.259,0.354,91.411-15.747,91.974-15.909c6.633-1.918,13.562,1.905,15.479,8.536c1.917,6.632-1.903,13.562-8.534,15.479
								C1957.02,3801.115,1900.557,3817.316,1861.642,3817.316z M1825.666,3789.749c0.004,0.003,0.009,0.007,0.013,0.011
								C1825.674,3789.756,1825.67,3789.752,1825.666,3789.749z M1825.653,3789.738c0.004,0.003,0.007,0.006,0.011,0.009
								C1825.66,3789.744,1825.657,3789.741,1825.653,3789.738z M1825.642,3789.729c0.002,0.003,0.005,0.005,0.007,0.007
								C1825.647,3789.733,1825.645,3789.73,1825.642,3789.729z"/>
						</g>
						<g>
							<path style="fill:#7A001A;" d="M1972.443,3911.968c-33.97,0-40.226-5.107-42.309-6.809
								c-5.348-4.366-6.144-12.24-1.777-17.588c3.919-4.8,10.665-5.932,15.872-2.957c1.38,0.466,8.598,2.479,30.131,2.348
								c29.844-0.177,77.756-14.23,78.237-14.372c6.618-1.954,13.573,1.824,15.529,8.444s-1.822,13.572-8.441,15.529
								c-2.098,0.621-51.773,15.2-85.177,15.398C1973.809,3911.966,1973.12,3911.968,1972.443,3911.968z M1945.933,3885.783
								c0.004,0.004,0.009,0.007,0.013,0.011C1945.941,3885.79,1945.937,3885.787,1945.933,3885.783z M1945.922,3885.774
								c0.002,0.002,0.005,0.005,0.008,0.007C1945.927,3885.779,1945.924,3885.776,1945.922,3885.774z M1943.977,3884.522
								C1943.977,3884.522,1943.977,3884.522,1943.977,3884.522S1943.977,3884.522,1943.977,3884.522z"/>
						</g>
						<g>
							<path style="fill:#7A001A;" d="M2083.486,3998.502c-14.827,0-18.806-2.6-20.434-3.661c-5.781-3.774-7.408-11.52-3.635-17.301
								c3.387-5.188,9.975-7.032,15.468-4.625c1.422,0.315,8.819,1.546,30.21-0.865c29.657-3.346,75.804-22.409,76.267-22.602
								c6.375-2.647,13.69,0.372,16.338,6.747c2.649,6.374-0.37,13.688-6.744,16.338c-2.021,0.841-49.866,20.614-83.059,24.358
								C2097.53,3998.062,2089.588,3998.502,2083.486,3998.502z M2076.707,3973.898c0.003,0.003,0.007,0.005,0.011,0.007
								C2076.714,3973.903,2076.71,3973.901,2076.707,3973.898z M2076.695,3973.891c0.003,0.002,0.006,0.005,0.009,0.006
								C2076.701,3973.895,2076.698,3973.893,2076.695,3973.891z M2076.687,3973.886c0.001,0.001,0.001,0.001,0.002,0.002
								C2076.689,3973.887,2076.688,3973.887,2076.687,3973.886z"/>
						</g>
						<g>
							<path style="fill:#9B001A;" d="M2221.517,4067.813c-14.827,0-18.806-2.6-20.434-3.661c-5.781-3.774-7.408-11.52-3.635-17.301
								c3.387-5.188,9.975-7.03,15.468-4.625c1.422,0.316,8.82,1.546,30.21-0.865c29.657-3.346,75.805-22.408,76.267-22.601
								c6.375-2.65,13.69,0.372,16.339,6.747c2.648,6.374-0.371,13.688-6.745,16.339c-2.021,0.84-49.866,20.612-83.059,24.356
								C2235.561,4067.372,2227.619,4067.813,2221.517,4067.813z M2214.737,4043.209c0.003,0.003,0.007,0.005,0.011,0.007
								C2214.745,4043.214,2214.741,4043.212,2214.737,4043.209z M2214.726,4043.201c0.003,0.002,0.006,0.005,0.009,0.006
								C2214.732,4043.205,2214.729,4043.203,2214.726,4043.201z M2214.718,4043.196c0.001,0.001,0.001,0.001,0.002,0.002
								C2214.72,4043.197,2214.719,4043.197,2214.718,4043.196z"/>
						</g>
						<g>
							<path style="fill:#9B001A;" d="M2342.372,4114.297c-6.148,0-8.342-1.037-9.569-1.616c-6.242-2.949-8.912-10.399-5.963-16.642
								c2.612-5.528,8.754-8.256,14.459-6.758c1.561,0.108,9.788,0.284,34.353-5.16c33.727-7.474,87.766-32.26,88.308-32.51
								c6.271-2.885,13.696-0.144,16.582,6.126c2.888,6.271,0.146,13.694-6.125,16.582c-2.311,1.064-57.004,26.154-93.356,34.21
								C2360.709,4113.039,2349.143,4114.297,2342.372,4114.297z M2343.461,4090.066c0.006,0.003,0.012,0.006,0.019,0.009
								C2343.474,4090.072,2343.468,4090.069,2343.461,4090.066z M2343.443,4090.059c0.005,0.002,0.01,0.004,0.015,0.007
								C2343.453,4090.063,2343.448,4090.061,2343.443,4090.059z M2343.428,4090.051c0.002,0.001,0.004,0.002,0.006,0.003
								C2343.432,4090.053,2343.43,4090.052,2343.428,4090.051z M2341.016,4089.255L2341.016,4089.255L2341.016,4089.255z"/>
						</g>
						<g>
							<path style="fill:#9B001A;" d="M2510.077,4144.99c-3.58,0-5.758-0.555-7.298-1.177c-6.401-2.587-9.493-9.872-6.907-16.272
								c2.303-5.7,8.332-8.782,14.144-7.556c1.399-0.016,8.465-0.303,27.472-6.291c26.837-8.457,66.623-34.222,67.021-34.48
								c5.789-3.763,13.531-2.122,17.293,3.664c3.764,5.786,2.125,13.527-3.661,17.292c-1.742,1.134-43.032,27.881-73.14,37.368
								C2526.591,4143.34,2516.251,4144.99,2510.077,4144.99z M2512.128,4120.627c0.006,0.003,0.011,0.005,0.017,0.007
								C2512.139,4120.632,2512.134,4120.63,2512.128,4120.627z M2512.111,4120.62c0.005,0.002,0.01,0.004,0.014,0.006
								C2512.12,4120.624,2512.116,4120.622,2512.111,4120.62z M2512.099,4120.615c0.002,0.001,0.005,0.002,0.007,0.003
								C2512.103,4120.617,2512.101,4120.616,2512.099,4120.615z"/>
						</g>
						<g>
							<path style="fill:#9B001A;" d="M2640.896,4148.716c-5.452,0-7.707-1.023-8.848-1.54c-6.287-2.853-9.071-10.261-6.22-16.548
								c2.555-5.631,8.767-8.454,14.55-6.931c1.375,0.086,8.045,0.108,25.811-4.719c25.194-6.846,62.022-29.914,62.392-30.146
								c5.844-3.675,13.561-1.921,17.237,3.921s1.924,13.558-3.917,17.235c-1.634,1.029-40.341,25.286-69.157,33.115
								C2656.553,4147.503,2646.83,4148.716,2640.896,4148.716z M2642.358,4124.4c0.006,0.003,0.012,0.006,0.018,0.008
								C2642.37,4124.406,2642.364,4124.403,2642.358,4124.4z M2642.341,4124.393c0.005,0.002,0.009,0.004,0.014,0.006
								C2642.35,4124.396,2642.346,4124.395,2642.341,4124.393z M2642.327,4124.387c0.001,0,0.002,0.001,0.003,0.001
								C2642.329,4124.388,2642.328,4124.387,2642.327,4124.387z M2640.105,4123.675
								C2640.106,4123.675,2640.106,4123.675,2640.105,4123.675C2640.106,4123.675,2640.106,4123.675,2640.105,4123.675z"/>
						</g>
						<g>
							<path style="fill:#5B0018;" d="M2759.012,4145.016c-1.855,0-2.931-0.281-3.716-0.486c-6.679-1.748-10.676-8.579-8.928-15.258
								c1.539-5.878,7.025-9.699,12.857-9.313c1.499-0.188,8.965-1.503,29.838-10.333c29.173-12.343,74.02-43.607,74.469-43.921
								c5.659-3.958,13.451-2.576,17.407,3.08c3.956,5.657,2.578,13.449-3.079,17.406c-1.922,1.345-47.446,33.085-79.057,46.458
								C2774.182,4143.065,2763.895,4145.016,2759.012,4145.016z M2761.615,4120.341c0.004,0.001,0.007,0.002,0.011,0.003
								C2761.622,4120.343,2761.619,4120.342,2761.615,4120.341z M2761.604,4120.338c0.003,0.001,0.006,0.002,0.009,0.002
								C2761.609,4120.34,2761.606,4120.339,2761.604,4120.338z M2761.597,4120.336
								C2761.597,4120.336,2761.597,4120.336,2761.597,4120.336S2761.597,4120.336,2761.597,4120.336z M2758.936,4119.987
								L2758.936,4119.987L2758.936,4119.987z"/>
						</g>
						<g>
							<path style="fill:#F42A2A;" d="M2186.254,2106.312c-0.08-0.166-8.379-17.082-43.701-60.345
								c-30.15-36.929-55.172-39.759-56.223-39.861c0.55,0.054,0.836,0.046,0.837,0.045l1.805-54.971
								c4.963,0.163,49.833,3.231,96.185,60.004c40.16,49.189,49.796,69.208,51.32,72.722l-50.458,21.886
								C2186.021,2105.791,2186.087,2105.962,2186.254,2106.312z"/>
						</g>
						<g>
							<path style="fill:#F42A2A;" d="M1352.629,1400.977c-4.331,0-8.668-1.598-12.055-4.817c-7.005-6.66-7.285-17.736-0.625-24.741
								c3.678-3.869,18.741-16.55,58.141-17.307c35.069-0.676,47.224,1.119,49.304,1.485l-6.07,34.47l0.196,0.033
								c-0.104-0.016-10.855-1.606-42.758-0.995c-24.067,0.462-33.138,6.413-34.182,7.159
								C1361.232,1399.398,1356.934,1400.977,1352.629,1400.977z M1364.477,1396.341L1364.477,1396.341L1364.477,1396.341z
								 M1365.292,1395.559c-0.004,0.004-0.008,0.008-0.012,0.012C1365.284,1395.567,1365.288,1395.563,1365.292,1395.559z
								 M1365.315,1395.535c-0.006,0.007-0.013,0.013-0.019,0.02C1365.302,1395.548,1365.309,1395.542,1365.315,1395.535z"/>
						</g>
						<g>
							<path style="fill:#D30F2B;" d="M1381.585,1314.315c-6.648,0-13.003-3.808-15.938-10.253
								c-1.732-3.805-3.891-12.148,1.113-25.279c3.103-8.14,5.034-11.902,6.108-13.625l29.699,18.519c0,0,0.112-0.155,0.316-0.533
								c-0.045,0.084-1.143,2.132-3.419,8.104c-0.397,1.041-0.601,1.787-0.704,2.251c1.501,7.758-2.428,15.82-9.937,19.238
								C1386.476,1313.808,1384.01,1314.315,1381.585,1314.315z M1397.529,1289.62c0.001,0.003,0.002,0.005,0.003,0.008
								C1397.531,1289.625,1397.53,1289.622,1397.529,1289.62z M1397.515,1289.588c0.003,0.007,0.006,0.014,0.009,0.021
								C1397.521,1289.602,1397.518,1289.595,1397.515,1289.588z M1397.501,1289.56c0.003,0.007,0.007,0.015,0.01,0.022
								C1397.508,1289.574,1397.505,1289.567,1397.501,1289.56z"/>
						</g>
						<g>
							<path style="fill:#D30F2B;" d="M1289.578,1412.178c-6.648,0-13.003-3.808-15.938-10.253
								c-1.732-3.805-3.892-12.148,1.114-25.28c3.102-8.139,5.034-11.902,6.109-13.625l29.697,18.521c0,0,0.112-0.155,0.317-0.534
								c-0.045,0.084-1.143,2.131-3.417,8.102c-0.397,1.042-0.601,1.788-0.705,2.253c1.501,7.758-2.428,15.819-9.937,19.238
								C1294.468,1411.671,1292.003,1412.178,1289.578,1412.178z M1306.653,1391.948L1306.653,1391.948L1306.653,1391.948z
								 M1305.521,1387.482c0.001,0.003,0.002,0.005,0.003,0.008C1305.524,1387.488,1305.522,1387.485,1305.521,1387.482z
								 M1305.507,1387.451c0.003,0.007,0.006,0.014,0.009,0.021C1305.513,1387.464,1305.51,1387.458,1305.507,1387.451z
								 M1305.494,1387.422c0.003,0.007,0.007,0.015,0.01,0.022C1305.501,1387.437,1305.498,1387.43,1305.494,1387.422z"/>
						</g>
						<g>
							<path style="fill:#D30F2B;" d="M1201.515,1534.837c-6.648,0-13.001-3.807-15.937-10.251
								c-1.733-3.805-3.893-12.149,1.112-25.282c3.102-8.14,5.035-11.902,6.11-13.626l29.696,18.523c0,0,0.112-0.155,0.317-0.534
								c-0.045,0.084-1.143,2.131-3.418,8.101c-0.397,1.042-0.601,1.787-0.704,2.252c1.501,7.757-2.427,15.819-9.935,19.238
								C1206.406,1534.33,1203.94,1534.837,1201.515,1534.837z M1217.458,1510.142c0,0.001,0.001,0.002,0.001,0.003
								C1217.459,1510.145,1217.459,1510.143,1217.458,1510.142z M1217.443,1510.108c0.002,0.005,0.004,0.01,0.007,0.016
								C1217.448,1510.119,1217.446,1510.114,1217.443,1510.108z M1217.43,1510.079c0.003,0.007,0.007,0.015,0.01,0.022
								C1217.437,1510.094,1217.433,1510.086,1217.43,1510.079z"/>
						</g>
						<g>
							<path style="fill:#D30F2B;" d="M1112.625,1676.709c-5.809,0-11.491-2.89-14.818-8.167c-1.733-2.748-7.006-13-2.122-29.592
								c2.411-8.19,4.697-14.17,6.61-17.291l29.838,18.295c0,0,0.177-0.231,0.47-0.827c-0.049,0.101-1.233,2.541-3.342,9.707
								c-0.514,1.746-0.599,2.861-0.6,3.396c3.396,7.79,0.692,17.105-6.716,21.778
								C1119.045,1675.837,1115.815,1676.709,1112.625,1676.709z M1128.677,1652.606L1128.677,1652.606L1128.677,1652.606z
								 M1127.441,1649.921c0.003,0.005,0.006,0.01,0.01,0.016C1127.448,1649.932,1127.444,1649.927,1127.441,1649.921z
								 M1127.426,1649.896c0.004,0.006,0.008,0.014,0.013,0.021C1127.434,1649.91,1127.43,1649.903,1127.426,1649.896z
								 M1127.41,1649.871c0.005,0.008,0.01,0.016,0.015,0.023C1127.419,1649.887,1127.415,1649.879,1127.41,1649.871z"/>
						</g>
						<g>
							<path style="fill:#D30F2B;" d="M1022.657,1822.901c-6.855,0-13.362-4.053-16.163-10.776
								c-2.65-6.364-2.538-16.487,0.331-30.088c3.237-15.341,4.928-20.761,5.234-21.691l33.247,10.938l0.042-0.13
								c-0.014,0.045-1.435,4.639-4.277,18.109c-1.518,7.194-1.515,10.764-1.468,11.788c2.137,8.293-2.089,17.113-10.226,20.501
								C1027.178,1822.467,1024.898,1822.901,1022.657,1822.901z M1038.829,1798.726c0.001,0.004,0.002,0.007,0.004,0.011
								C1038.832,1798.733,1038.83,1798.73,1038.829,1798.726z M1038.816,1798.696c0.003,0.007,0.006,0.014,0.009,0.021
								C1038.822,1798.71,1038.819,1798.703,1038.816,1798.696z M1038.805,1798.668c0.003,0.008,0.006,0.017,0.01,0.025
								C1038.812,1798.685,1038.808,1798.677,1038.805,1798.668z"/>
						</g>
						<g>
							<path style="fill:#D30F2B;" d="M958.923,1940.8c-6.855,0-13.361-4.053-16.162-10.775c-2.651-6.364-2.54-16.488,0.33-30.089
								c3.237-15.341,4.928-20.761,5.234-21.691l33.247,10.938l0.042-0.13c-0.014,0.044-1.435,4.638-4.277,18.109
								c-1.518,7.194-1.515,10.763-1.468,11.787c2.137,8.293-2.088,17.112-10.224,20.501
								C963.445,1940.367,961.165,1940.8,958.923,1940.8z M975.094,1916.624c0.001,0.004,0.003,0.008,0.005,0.011
								C975.097,1916.631,975.095,1916.628,975.094,1916.624z M975.081,1916.594c0.003,0.007,0.006,0.015,0.009,0.022
								C975.087,1916.608,975.084,1916.601,975.081,1916.594z M975.07,1916.566c0.003,0.008,0.007,0.017,0.01,0.025
								C975.077,1916.583,975.073,1916.575,975.07,1916.566z"/>
						</g>
						<g>
							<path style="fill:#D30F2B;" d="M904.851,2090.875c-6.856,0-13.362-4.053-16.162-10.776
								c-2.651-6.364-2.54-16.488,0.331-30.089c3.237-15.34,4.928-20.76,5.234-21.691l33.247,10.938l0.042-0.13
								c-0.014,0.045-1.435,4.639-4.277,18.109c-1.518,7.194-1.515,10.763-1.468,11.787c2.138,8.294-2.088,17.113-10.225,20.502
								C909.373,2090.442,907.092,2090.875,904.851,2090.875z M921.021,2066.698c0.002,0.006,0.004,0.011,0.006,0.016
								C921.025,2066.708,921.023,2066.703,921.021,2066.698z M921.009,2066.669c0.003,0.008,0.006,0.015,0.009,0.023
								C921.016,2066.685,921.012,2066.677,921.009,2066.669z M920.998,2066.643c0.003,0.008,0.007,0.017,0.01,0.025
								C921.005,2066.659,921.001,2066.651,920.998,2066.643z"/>
						</g>
						<g>
							<path style="fill:#D30F2B;" d="M864.777,2261.678c-3.876,0-7.698-1.797-10.142-5.18c-1.86-2.574-5.94-10.354-3.652-26.961
								c1.855-13.468,3.248-18.399,3.631-19.59l23.801,7.651l0.059-0.189c-0.011,0.039-1.132,3.98-2.724,15.54
								c-0.879,6.378-0.24,9.437-0.034,10.195c3.014,5.454,1.55,12.423-3.628,16.164
								C869.875,2260.908,867.314,2261.678,864.777,2261.678z M875.774,2243.336L875.774,2243.336L875.774,2243.336z
								 M874.912,2241.873c0.003,0.004,0.005,0.008,0.008,0.012C874.917,2241.881,874.914,2241.877,874.912,2241.873z
								 M874.898,2241.855c0.004,0.005,0.008,0.01,0.011,0.016C874.906,2241.866,874.902,2241.86,874.898,2241.855z"/>
						</g>
						<g>
							<path style="fill:#D30F2B;" d="M853.256,2401.361c-4.606,0-9.037-2.556-11.216-6.965c-1.976-3.999-2.846-11.351-2.584-21.85
								c0.321-12.869,0.758-17.298,0.807-17.761c0.725-6.866,6.867-11.843,13.743-11.119c6.865,0.725,11.843,6.877,11.119,13.743
								l0,0c0,0-0.384,4.021-0.677,15.76c-0.187,7.49,0.368,10.63,0.525,11.358c2.197,5.927-0.397,12.675-6.189,15.538
								C857.004,2400.944,855.116,2401.361,853.256,2401.361z M864.474,2383.363c0.001,0.001,0.001,0.001,0.002,0.002
								C864.475,2383.364,864.474,2383.363,864.474,2383.363z M864.462,2383.339c0.002,0.004,0.005,0.009,0.007,0.014
								C864.467,2383.349,864.465,2383.344,864.462,2383.339z M864.453,2383.32c0.003,0.005,0.005,0.011,0.008,0.017
								C864.458,2383.332,864.456,2383.326,864.453,2383.32z"/>
						</g>
						<g>
							<path style="fill:#D30F2B;" d="M1508.895,1201.34c-6.648,0-13.001-3.807-15.937-10.251
								c-1.733-3.805-3.893-12.149,1.112-25.282c3.102-8.139,5.034-11.902,6.109-13.625l29.697,18.521c0,0,0.112-0.155,0.317-0.534
								c-0.045,0.084-1.143,2.131-3.417,8.102c-0.397,1.042-0.601,1.787-0.704,2.252c1.501,7.757-2.427,15.819-9.935,19.238
								C1513.787,1200.833,1511.32,1201.34,1508.895,1201.34z M1524.838,1176.644c0,0.001,0.001,0.004,0.002,0.005
								C1524.84,1176.647,1524.839,1176.646,1524.838,1176.644z M1524.824,1176.611c0.002,0.006,0.005,0.012,0.008,0.018
								C1524.829,1176.623,1524.826,1176.617,1524.824,1176.611z M1524.81,1176.582c0.003,0.007,0.007,0.015,0.01,0.022
								C1524.817,1176.597,1524.813,1176.589,1524.81,1176.582z"/>
						</g>
						<g>
							<path style="fill:#D30F2B;" d="M1616.866,1123.886c-8.597,0-16.094-6.336-17.312-15.093
								c-0.576-4.141-0.266-12.755,8.278-23.914c5.295-6.916,8.22-9.971,9.742-11.316l23.181,26.223c0,0,0.151-0.116,0.456-0.42
								c-0.073,0.073-1.71,1.726-5.587,6.791c-0.678,0.885-1.085,1.541-1.317,1.957c-0.774,7.863-6.838,14.469-15.009,15.604
								C1618.48,1123.831,1617.667,1123.886,1616.866,1123.886z M1634.041,1108.644
								C1634.041,1108.645,1634.041,1108.645,1634.041,1108.644C1634.041,1108.645,1634.041,1108.645,1634.041,1108.644z
								 M1634.226,1104.009c0,0,0,0.001,0,0.002C1634.226,1104.01,1634.226,1104.01,1634.226,1104.009z M1634.223,1103.991
								c0,0.002,0,0.002,0.001,0.004C1634.224,1103.994,1634.224,1103.992,1634.223,1103.991z"/>
						</g>
						<g>
							<path style="fill:#D30F2B;" d="M1767.823,1037.544c-6.141,0-11.496-4.526-12.365-10.781
								c-0.468-3.368-0.143-10.47,7.295-20.186c5.517-7.205,8.19-9.82,9.083-10.609l16.558,18.73c0,0,0.084-0.067,0.253-0.231
								c-0.072,0.071-1.819,1.79-6.044,7.308c-1.479,1.932-2.065,3.188-2.271,3.715c-0.207,5.958-4.666,11.085-10.773,11.934
								C1768.976,1037.505,1768.396,1037.544,1767.823,1037.544z M1780.226,1023.369
								C1780.226,1023.369,1780.226,1023.37,1780.226,1023.369C1780.226,1023.369,1780.226,1023.369,1780.226,1023.369z
								 M1780.223,1023.344c0.001,0.004,0.001,0.01,0.002,0.015C1780.224,1023.354,1780.224,1023.349,1780.223,1023.344z
								 M1780.22,1023.322c0.001,0.006,0.002,0.013,0.003,0.019C1780.222,1023.335,1780.221,1023.329,1780.22,1023.322z"/>
						</g>
						<g>
							<path style="fill:#D30F2B;" d="M1930.639,974.598c-6.142,0-11.498-4.528-12.366-10.783
								c-0.365-2.628-0.226-8.016,4.802-14.585c2.219-2.899,3.987-4.936,5.254-6.056l16.556,18.732c0,0,0.141-0.104,0.426-0.398
								c-0.034,0.035-0.74,0.771-2.368,2.896c-0.964,5.135-5.109,9.315-10.57,10.073
								C1931.791,974.559,1931.211,974.598,1930.639,974.598z M1942.607,964.889L1942.607,964.889L1942.607,964.889z
								 M1943.051,960.489C1943.051,960.489,1943.051,960.489,1943.051,960.489S1943.051,960.489,1943.051,960.489z
								 M1943.047,960.462c0,0.003,0.001,0.007,0.001,0.011C1943.048,960.469,1943.048,960.465,1943.047,960.462z M1943.044,960.44
								c0.001,0.005,0.001,0.01,0.002,0.016C1943.046,960.45,1943.045,960.445,1943.044,960.44z M1943.042,960.419
								c0,0.006,0.001,0.012,0.002,0.018C1943.043,960.431,1943.042,960.425,1943.042,960.419z M1943.039,960.399
								c0.001,0.006,0.001,0.012,0.002,0.018C1943.041,960.411,1943.04,960.405,1943.039,960.399z M1943.036,960.378
								c0.001,0.006,0.002,0.013,0.002,0.02C1943.038,960.391,1943.037,960.384,1943.036,960.378z"/>
						</g>
						<g>
							<path style="fill:#F42A2A;" d="M1249.846,1529.643c-4.331,0-8.668-1.598-12.055-4.817
								c-7.005-6.659-7.285-17.736-0.625-24.741c3.678-3.869,18.741-16.55,58.141-17.307c35.072-0.673,47.225,1.12,49.304,1.486
								l-6.071,34.47l0.196,0.033c-0.105-0.016-10.852-1.606-42.757-0.995c-24.069,0.462-33.14,6.414-34.182,7.159
								C1258.448,1528.064,1254.151,1529.643,1249.846,1529.643z M1261.693,1525.006L1261.693,1525.006L1261.693,1525.006z
								 M1262.484,1524.25c-0.001,0.001-0.001,0.001-0.002,0.002C1262.482,1524.252,1262.483,1524.251,1262.484,1524.25z
								 M1262.51,1524.223c-0.005,0.005-0.011,0.011-0.016,0.017C1262.5,1524.234,1262.505,1524.229,1262.51,1524.223z
								 M1262.532,1524.2c-0.007,0.007-0.013,0.014-0.02,0.021C1262.519,1524.214,1262.525,1524.207,1262.532,1524.2z"/>
						</g>
						<g>
							<path style="fill:#F42A2A;" d="M1134.03,1682.713c-4.331,0-8.668-1.598-12.055-4.817c-7.005-6.659-7.285-17.736-0.625-24.741
								c3.678-3.869,18.741-16.55,58.141-17.307c35.072-0.675,47.225,1.12,49.304,1.486l-6.071,34.47l0.196,0.033
								c-0.104-0.016-10.853-1.605-42.757-0.995c-24.069,0.462-33.14,6.414-34.182,7.159
								C1142.633,1681.135,1138.335,1682.713,1134.03,1682.713z M1145.878,1678.077L1145.878,1678.077L1145.878,1678.077z
								 M1146.668,1677.321c-0.001,0.001-0.001,0.001-0.002,0.002C1146.667,1677.323,1146.668,1677.322,1146.668,1677.321z
								 M1146.695,1677.294c-0.005,0.005-0.011,0.011-0.016,0.017C1146.684,1677.305,1146.689,1677.299,1146.695,1677.294z
								 M1146.716,1677.271c-0.007,0.007-0.013,0.014-0.02,0.021C1146.703,1677.285,1146.709,1677.278,1146.716,1677.271z"/>
						</g>
						<g>
							<path style="fill:#F42A2A;" d="M1050.406,1835.554c-3.963,0-7.947-1.339-11.224-4.082
								c-7.411-6.204-8.389-17.241-2.186-24.652c2.413-2.882,16.294-17.356,52.698-19.218c31.005-1.587,41.957-0.043,43.837,0.281
								l-5.964,34.488l0.292,0.047c-0.091-0.014-9.307-1.248-36.377,0.137c-19.821,1.014-27.4,6.728-28.299,7.465
								C1059.767,1833.673,1055.102,1835.554,1050.406,1835.554z M1063.092,1830.1L1063.092,1830.1L1063.092,1830.1z
								 M1063.791,1829.338c-0.003,0.004-0.006,0.008-0.01,0.012C1063.784,1829.346,1063.788,1829.342,1063.791,1829.338z
								 M1063.814,1829.311c-0.006,0.007-0.012,0.015-0.019,0.021C1063.801,1829.326,1063.808,1829.318,1063.814,1829.311z
								 M1063.834,1829.287c-0.007,0.008-0.013,0.016-0.02,0.024C1063.821,1829.303,1063.828,1829.294,1063.834,1829.287z"/>
						</g>
						<g>
							<path style="fill:#D30F2B;" d="M1028.181,1977.818c-0.062-0.029-6.451-2.899-25.883-8.146
								c-12.205-3.294-18.063-2.192-19.176-1.918c-8.104,3.813-17.922,0.876-22.535-7c-4.884-8.34-2.083-19.061,6.258-23.945
								c3.553-2.081,17.271-8.298,44.575-0.927c22.271,6.012,30.121,9.501,31.996,10.427l-15.498,31.382L1028.181,1977.818z
								 M982.925,1967.809L982.925,1967.809L982.925,1967.809z M984.514,1967.023c-0.003,0.001-0.006,0.003-0.009,0.005
								C984.507,1967.027,984.511,1967.025,984.514,1967.023z M984.533,1967.012c-0.005,0.002-0.01,0.005-0.014,0.008
								C984.523,1967.018,984.528,1967.015,984.533,1967.012z"/>
						</g>
						<g>
							<path style="fill:#D30F2B;" d="M946.672,2128.976c-0.027-0.038-2.823-3.861-11.947-13.697
								c-4.483-4.833-7.274-6.654-8.164-7.167c-8.186-2.276-13.709-10.247-12.666-18.942c1.152-9.596,9.865-16.441,19.461-15.29
								c5.496,0.66,14.647,4.249,27.028,17.597c10.649,11.479,14.158,16.266,14.98,17.459l-28.825,19.852L946.672,2128.976z
								 M929.16,2108.627c0.009,0.001,0.018,0.002,0.026,0.003C929.178,2108.629,929.169,2108.628,929.16,2108.627z
								 M929.136,2108.624c0.007,0.001,0.013,0.001,0.02,0.002C929.149,2108.625,929.143,2108.625,929.136,2108.624z
								 M929.116,2108.622c0.002,0,0.003,0,0.004,0C929.119,2108.622,929.118,2108.622,929.116,2108.622z"/>
						</g>
						<g>
							<path style="fill:#D30F2B;" d="M887.451,2278.543c-0.053-0.071-1.336-1.797-5.495-6.281c-1.371-1.478-2.296-2.22-2.729-2.533
								c-5.496-1.849-9.131-7.352-8.413-13.336c0.823-6.854,7.051-11.748,13.9-10.921c4.847,0.582,10.085,3.875,15.57,9.788
								c5.201,5.606,7.066,8.104,7.626,8.918l-20.591,14.179L887.451,2278.543z M881.717,2270.292
								c0.006,0.001,0.012,0.001,0.018,0.002C881.729,2270.294,881.723,2270.293,881.717,2270.292z M881.699,2270.291
								c0.005,0,0.01,0.001,0.015,0.001C881.708,2270.292,881.704,2270.291,881.699,2270.291z M881.681,2270.288
								c0.002,0,0.004,0,0.006,0C881.685,2270.289,881.683,2270.289,881.681,2270.288z"/>
						</g>
						<g>
							<path style="fill:#D30F2B;" d="M867.777,2410.996h0.01H867.777z M867.777,2410.995c-0.025-0.033-0.588-0.758-2.246-2.545
								c-0.026-0.028-0.051-0.054-0.074-0.079c-4.693-2.251-7.657-7.308-7.001-12.764c0.824-6.854,7.053-11.739,13.902-10.919
								c3.906,0.469,7.776,2.744,11.502,6.76c2.035,2.193,3.516,3.94,4.28,5.051l-18.874,12.997
								c0.014,0.002,0.028,0.004,0.042,0.005c-0.014-0.001-0.028-0.003-0.042-0.005l-1.717,1.182
								C867.548,2410.677,867.61,2410.779,867.777,2410.995z M865.08,2408.003L865.08,2408.003L865.08,2408.003z M869.366,2409.508
								c-0.001,0-0.001,0-0.003,0C869.364,2409.507,869.365,2409.508,869.366,2409.508z M869.356,2409.507c-0.001,0-0.002,0-0.004,0
								C869.354,2409.506,869.355,2409.506,869.356,2409.507z M869.348,2409.505c-0.001,0-0.003,0-0.004,0
								C869.345,2409.505,869.346,2409.505,869.348,2409.505z M869.338,2409.504c-0.002,0-0.003,0-0.005,0
								C869.335,2409.504,869.337,2409.504,869.338,2409.504z M869.329,2409.503c-0.006-0.001-0.013-0.001-0.019-0.002
								C869.316,2409.502,869.323,2409.502,869.329,2409.503z"/>
						</g>
						<g>
							<path style="fill:#F42A2A;" d="M1484.644,1261.863c-4.331,0-8.668-1.598-12.055-4.817
								c-7.005-6.659-7.285-17.736-0.625-24.741c3.678-3.869,18.741-16.55,58.141-17.307c35.075-0.674,47.226,1.12,49.305,1.486
								l-6.071,34.47l0.196,0.033c-0.104-0.016-10.856-1.606-42.757-0.995c-24.068,0.462-33.139,6.414-34.182,7.159
								C1493.247,1260.284,1488.949,1261.863,1484.644,1261.863z M1496.492,1257.226L1496.492,1257.226L1496.492,1257.226z
								 M1497.289,1256.464c-0.005,0.005-0.011,0.011-0.016,0.016C1497.279,1256.474,1497.284,1256.469,1497.289,1256.464z
								 M1497.33,1256.42c-0.013,0.014-0.027,0.028-0.04,0.042C1497.303,1256.449,1497.316,1256.435,1497.33,1256.42z"/>
						</g>
						<g>
							<path style="fill:#F42A2A;" d="M1626.095,1150.745c-4.331,0-8.668-1.598-12.055-4.817
								c-7.005-6.659-7.285-17.736-0.625-24.741c3.225-3.393,16.35-14.511,49.832-15.154c29.002-0.559,39.218,0.956,40.97,1.264
								l-6.07,34.47l0.234,0.039c-0.085-0.013-8.816-1.271-34.462-0.779c-17.94,0.345-25.024,4.5-26.051,5.17
								C1634.546,1149.222,1630.324,1150.745,1626.095,1150.745z M1638.759,1145.326c-0.004,0.004-0.008,0.009-0.012,0.013
								C1638.75,1145.335,1638.755,1145.331,1638.759,1145.326z M1638.781,1145.303c-0.006,0.006-0.012,0.013-0.018,0.019
								C1638.769,1145.315,1638.775,1145.309,1638.781,1145.303z"/>
						</g>
						<g>
							<path style="fill:#F42A2A;" d="M1789.026,1046.302c-4.04,0-8.004-1.955-10.413-5.568c-3.829-5.744-2.277-13.505,3.467-17.334
								c3.131-2.087,11.195-5.421,30.025-4.325c17.724,1.035,23.792,2.086,24.425,2.202c6.79,1.247,11.283,7.763,10.036,14.553
								c-1.248,6.79-7.759,11.285-14.553,10.036c0,0,0,0,0,0c-0.004,0-5.437-0.903-21.365-1.833
								c-10.524-0.613-14.973,0.57-15.832,0.841C1792.983,1045.837,1790.995,1046.302,1789.026,1046.302z M1795.934,1044.21
								c-0.003,0.002-0.006,0.004-0.009,0.006C1795.928,1044.214,1795.931,1044.212,1795.934,1044.21z M1795.948,1044.202
								c-0.004,0.002-0.008,0.005-0.011,0.007C1795.94,1044.207,1795.944,1044.204,1795.948,1044.202z"/>
						</g>
						<g>
							<path style="fill:#D30F2B;" d="M1939.875,983.46c-4.04,0-8.003-1.954-10.412-5.567c-3.83-5.744-2.278-13.505,3.466-17.334
								c3.307-2.206,10.304-4.655,24.855-3.806c13.513,0.789,18.308,1.584,19.131,1.736c6.79,1.248,11.283,7.763,10.036,14.553
								c-1.242,6.759-7.705,11.246-14.461,10.052c-0.219-0.035-4.422-0.697-16.163-1.382c-6.957-0.406-10.146,0.256-10.933,0.46
								C1943.637,983.04,1941.747,983.46,1939.875,983.46z M1946.77,981.377c-0.001,0.001-0.002,0.002-0.003,0.003
								C1946.767,981.379,1946.769,981.378,1946.77,981.377z M1946.784,981.368c-0.003,0.002-0.007,0.005-0.01,0.007
								C1946.777,981.372,1946.781,981.37,1946.784,981.368z M1946.797,981.359c-0.004,0.002-0.008,0.005-0.012,0.008
								C1946.789,981.364,1946.793,981.362,1946.797,981.359z"/>
						</g>
						<g>
							<path style="fill:#F42A2A;" d="M2355.117,2035.647c-0.08-0.166-8.379-17.082-43.701-60.344
								c-30.15-36.929-55.171-39.759-56.222-39.861c0.549,0.054,0.839,0.044,0.837,0.045l1.804-54.971
								c4.963,0.163,49.833,3.23,96.185,60.004c40.16,49.189,49.796,69.208,51.32,72.722l-50.458,21.886
								C2354.883,2035.127,2354.95,2035.299,2355.117,2035.647z"/>
						</g>
						<g>
							<path style="fill:#F42A2A;" d="M2078.2,2201.071c-11.126,0-39.052-4.147-86.893-36.529
								c-50.493-34.176-65.955-47.893-67.552-49.344l36.995-40.699l-0.116-0.104c0.14,0.125,14.541,12.814,61.502,44.601
								c35.982,24.355,53.695,26.846,55.906,27.068c14.313-0.521,26.795,10.168,28.3,24.64c1.571,15.106-9.401,28.626-24.507,30.198
								C2080.934,2200.994,2079.723,2201.071,2078.2,2201.071z M2076.188,2146.19c-0.014,0.001-0.029,0.003-0.043,0.004
								C2076.16,2146.193,2076.173,2146.192,2076.188,2146.19z M2076.227,2146.187c-0.011,0.001-0.023,0.002-0.035,0.003
								C2076.204,2146.189,2076.215,2146.188,2076.227,2146.187z M2076.256,2146.184L2076.256,2146.184L2076.256,2146.184z"/>
						</g>
						<g>
							<path style="fill:#F42A2A;" d="M1936.99,2286.538c-10.458,0-37.104-4.012-83.892-35.682
								c-50.206-33.982-65.422-47.477-66.992-48.904c-9.195-8.358-9.874-22.588-1.515-31.784c8.338-9.173,22.518-9.872,31.715-1.577
								c0.466,0.412,15.115,13.254,62.015,44.999c38.26,25.896,56.737,27.807,58.614,27.935
								c11.833-0.544,22.181,8.219,23.422,20.149c1.286,12.359-7.692,23.421-20.052,24.707
								C1939.479,2286.468,1938.376,2286.538,1936.99,2286.538z M1935.684,2241.62c-0.011,0.001-0.023,0.002-0.034,0.003
								C1935.661,2241.622,1935.673,2241.621,1935.684,2241.62z M1935.715,2241.617c-0.008,0-0.016,0.001-0.024,0.002
								C1935.699,2241.618,1935.707,2241.617,1935.715,2241.617z"/>
						</g>
						<g>
							<path style="fill:#F42A2A;" d="M1794.675,2412.842c-14.464,0-39.141-3.658-77.382-19.901
								c-55.799-23.702-73.325-34.021-75.14-35.12c-10.63-6.436-14.03-20.27-7.595-30.9c6.418-10.603,20.199-14.014,30.817-7.645
								c0.449,0.264,17.243,10.044,69.511,32.247c42.525,18.063,61.025,16.386,62.89,16.151
								c11.503-2.824,23.347,3.804,26.856,15.273c3.636,11.882-3.048,24.463-14.931,28.1
								C1807.322,2411.774,1802.488,2412.842,1794.675,2412.842z M1796.558,2368.008c-0.008,0.002-0.017,0.005-0.025,0.007
								C1796.542,2368.013,1796.549,2368.011,1796.558,2368.008z M1796.582,2368.001c-0.007,0.002-0.015,0.004-0.022,0.007
								C1796.567,2368.005,1796.575,2368.003,1796.582,2368.001z M1796.602,2367.995c-0.005,0.001-0.01,0.003-0.015,0.004
								C1796.591,2367.998,1796.597,2367.997,1796.602,2367.995z"/>
						</g>
						<g>
							<path style="fill:#EF1837;" d="M1683.867,2553.675c-14.464,0-39.14-3.658-77.381-19.902
								c-55.799-23.701-73.325-34.021-75.139-35.119c-10.63-6.436-14.03-20.271-7.595-30.9c6.419-10.602,20.199-14.012,30.818-7.644
								c0.451,0.265,17.246,10.045,69.509,32.246c42.523,18.063,61.022,16.388,62.889,16.151
								c11.503-2.824,23.346,3.802,26.857,15.271c3.637,11.883-3.047,24.464-14.929,28.101
								C1696.515,2552.606,1691.679,2553.675,1683.867,2553.675z M1685.75,2508.841c-0.008,0.003-0.017,0.005-0.025,0.008
								C1685.733,2508.846,1685.741,2508.844,1685.75,2508.841z M1685.773,2508.834c-0.007,0.002-0.015,0.004-0.022,0.007
								C1685.758,2508.838,1685.766,2508.836,1685.773,2508.834z M1685.793,2508.828c-0.005,0.001-0.01,0.003-0.015,0.004
								C1685.783,2508.831,1685.789,2508.829,1685.793,2508.828z M1687.125,2508.484L1687.125,2508.484L1687.125,2508.484z"/>
						</g>
						<g>
							<path style="fill:#CC0027;" d="M1592.742,2702.508c-14.61,0-36.124-3.137-65.95-14.603
								c-52.013-19.996-68.346-29.486-70.038-30.502l23.179-38.572l-0.147-0.087c0.146,0.085,15.194,8.721,63.153,27.157
								c38.06,14.632,55.254,11.333,56.985,10.937c11.188-3.987,23.665,1.443,28.294,12.533
								c4.788,11.467-0.626,24.644-12.094,29.432C1612.935,2700.135,1605.449,2702.508,1592.742,2702.508z M1598.817,2657.265
								c-0.01,0.004-0.021,0.008-0.031,0.013C1598.797,2657.272,1598.807,2657.269,1598.817,2657.265z M1598.846,2657.253
								c-0.008,0.003-0.016,0.006-0.023,0.01C1598.83,2657.259,1598.838,2657.256,1598.846,2657.253z"/>
						</g>
						<g>
							<path style="fill:#CC0027;" d="M1511.334,2841.074c-11.023,0-24.302-1.047-40.152-3.814
								c-54.476-9.514-71.953-15.541-73.767-16.196c-9.089-3.287-13.792-13.32-10.504-22.409
								c3.276-9.059,13.251-13.76,22.318-10.537c0.463,0.159,17.14,5.786,67.974,14.664c44.653,7.798,61.16-0.723,61.333-0.817
								c-0.482,0.261-0.698,0.437-0.698,0.437l19.462,29.09C1554.297,2833.499,1540.987,2841.074,1511.334,2841.074z"/>
						</g>
						<g>
							<path style="fill:#CC0027;" d="M1479.592,3008.159c-10.505,0-23.523-1.104-39.506-4.111
								c-48.208-9.07-63.773-14.479-65.389-15.065c-9.085-3.298-13.775-13.337-10.477-22.422
								c3.288-9.055,13.27-13.746,22.335-10.508c0.461,0.159,15.269,5.182,60.003,13.599c38.591,7.263,52.784,0.851,52.923,0.785
								c-0.601,0.284-0.866,0.493-0.866,0.493l18.446,29.744C1513.505,3002.88,1502.561,3008.159,1479.592,3008.159z"/>
						</g>
						<g>
							<path style="fill:#B70016;" d="M1467.123,3180.39c-10.675,0-24.321-1.222-41.543-4.695
								c-46.542-9.386-61.591-14.651-63.154-15.221c-9.081-3.309-13.76-13.353-10.451-22.434s13.352-13.762,22.434-10.451
								c0.053,0.018,14.263,4.958,58.09,13.797c37.183,7.498,50.76,2.1,50.893,2.045c-0.672,0.28-0.966,0.498-0.966,0.498
								l17.32,30.414C1496.521,3176.179,1486.94,3180.39,1467.123,3180.39z"/>
						</g>
						<g>
							<path style="fill:#B70016;" d="M1432.271,3314.824c-16.958,0-23.56-0.707-24.501-0.819l4.15-34.754l-0.112-0.013
								c0.116,0.013,11.989,1.227,47.196,0.112c26.822-0.849,36.639-6.248,37.837-6.971c7.092-5.741,17.522-5.081,23.823,1.706
								c6.576,7.083,6.165,18.156-0.918,24.732c-3.565,3.31-18.402,14.211-59.635,15.515
								C1448.688,3314.694,1439.529,3314.824,1432.271,3314.824z M1495.95,3273.151c-0.006,0.006-0.012,0.011-0.019,0.017
								C1495.938,3273.163,1495.944,3273.156,1495.95,3273.151z M1495.968,3273.135c-0.005,0.005-0.01,0.01-0.015,0.014
								C1495.958,3273.144,1495.963,3273.14,1495.968,3273.135z M1495.979,3273.124c-0.001,0.001-0.002,0.002-0.003,0.003
								C1495.978,3273.126,1495.978,3273.125,1495.979,3273.124z"/>
						</g>
						<g>
							<path style="fill:#B70016;" d="M1467.238,3473.97c-13.898,0-19.469-0.59-20.314-0.69l4.126-34.756l-0.127-0.015
								c0.11,0.013,11.419,1.137,44.858-0.181c25.145-0.991,34.417-6.285,35.583-7.017c6.959-5.889,17.391-5.461,23.841,1.175
								c6.735,6.932,6.577,18.011-0.354,24.746c-3.471,3.373-17.888,14.5-57.69,16.068
								C1484.449,3473.802,1474.657,3473.97,1467.238,3473.97z M1530.477,3432.113c-0.006,0.007-0.013,0.013-0.02,0.02
								C1530.464,3432.126,1530.471,3432.12,1530.477,3432.113z M1530.496,3432.096c-0.006,0.006-0.012,0.011-0.018,0.017
								C1530.484,3432.106,1530.49,3432.101,1530.496,3432.096z M1530.512,3432.08c-0.004,0.004-0.007,0.008-0.011,0.011
								C1530.504,3432.088,1530.508,3432.084,1530.512,3432.08z"/>
						</g>
						<g>
							<path style="fill:#8E0018;" d="M1541.278,3619.351c-7.499,0-10.75-0.332-11.343-0.401l3.462-29.799l-0.145-0.017
								c0.095,0.01,9.815,0.903,38.479-1.005c21.788-1.45,29.676-6.954,30.58-7.64c5.588-5.544,14.602-5.843,20.55-0.528
								c6.178,5.52,6.711,15.002,1.191,21.18c-3.024,3.385-15.593,14.61-50.329,16.922
								C1558.545,3619.073,1548.135,3619.351,1541.278,3619.351z M1601.697,3581.135c-0.005,0.006-0.011,0.012-0.016,0.018
								C1601.687,3581.146,1601.692,3581.141,1601.697,3581.135z M1601.711,3581.118c-0.004,0.005-0.007,0.009-0.011,0.013
								C1601.704,3581.127,1601.708,3581.123,1601.711,3581.118z"/>
						</g>
						<g>
							<path style="fill:#8E0018;" d="M1614.379,3742.582l-0.565-29.994l-0.145,0.003c0.096-0.003,9.849-0.421,38-6.15
								c21.396-4.354,28.475-10.863,29.28-11.665c4.794-6.244,13.687-7.746,20.294-3.276c6.861,4.643,8.66,13.968,4.018,20.829
								c-2.544,3.761-13.496,16.568-47.61,23.51C1626.446,3742.188,1615.521,3742.561,1614.379,3742.582z M1680.42,3695.507
								c-0.002,0.004-0.005,0.007-0.007,0.011C1680.416,3695.514,1680.418,3695.51,1680.42,3695.507z M1680.427,3695.496
								c-0.001,0.002-0.002,0.004-0.003,0.006C1680.425,3695.5,1680.426,3695.499,1680.427,3695.496z"/>
						</g>
						<g>
							<path style="fill:#8E0018;" d="M1736.638,3851.74l-0.671-24.99c0,0.001-0.089-0.001-0.278,0.011
								c0.076-0.005,6.734-0.511,25.416-5.96c14.915-4.351,19.061-11.007,19.101-11.074c-0.198,0.33-0.267,0.521-0.267,0.521
								l22.606,10.674c-1.265,2.679-8.87,16.421-34.441,23.879C1746.749,3851.029,1738.621,3851.688,1736.638,3851.74z"/>
						</g>
						<g>
							<path style="fill:#6B0017;" d="M1865.084,3941.438l-3.431-24.764c0,0-0.088,0.009-0.274,0.042
								c0.064-0.012,6.621-1.246,24.602-8.733c14.342-5.972,17.727-13.047,17.759-13.117c-0.16,0.349-0.208,0.548-0.208,0.548
								l23.648,8.107c-0.961,2.803-7,17.302-31.59,27.541C1875.054,3939.614,1867.048,3941.166,1865.084,3941.438z"/>
						</g>
						<g>
							<path style="fill:#6B0017;" d="M1987.243,4030.391l-3.431-24.764c0,0-0.088,0.009-0.274,0.042
								c0.064-0.012,6.621-1.246,24.602-8.733c14.342-5.972,17.727-13.047,17.76-13.117c-0.161,0.349-0.208,0.547-0.208,0.547
								l23.648,8.109c-0.961,2.803-7,17.301-31.59,27.54C1997.213,4028.566,1989.208,4030.118,1987.243,4030.391z"/>
						</g>
						<g>
							<path style="fill:#6B0017;" d="M2144.932,4093.158l-3.27-24.785l-0.197,0.028c0.052-0.009,5.416-0.909,20.271-5.973
								c9.759-3.325,13.083-6.809,13.627-7.441c3.243-5.566,10.272-7.801,16.186-4.972c6.228,2.979,8.863,10.442,5.884,16.67
								c-1.339,2.8-7.288,12.474-27.633,19.407C2152.555,4091.971,2146.059,4093.01,2144.932,4093.158z M2174.887,4055.889
								c-0.002,0.004-0.003,0.008-0.005,0.012C2174.883,4055.896,2174.885,4055.893,2174.887,4055.889z M2174.893,4055.876
								c-0.001,0.003-0.003,0.006-0.005,0.01C2174.89,4055.882,2174.892,4055.879,2174.893,4055.876z M2174.897,4055.867
								c0,0.001-0.001,0.001-0.001,0.002C2174.896,4055.868,2174.897,4055.867,2174.897,4055.867z"/>
						</g>
						<g>
							<path style="fill:#6B0017;" d="M2305.443,4133.007l-3.264-24.785c0,0-0.114,0.008-0.363,0.055
								c0.095-0.018,2.394-0.455,8.646-2.586c2.055-0.701,3.14-1.342,3.585-1.646c3.467-4.82,9.991-6.616,15.535-3.965
								c6.228,2.979,8.862,10.442,5.883,16.67c-1.458,3.048-5.597,8.738-16.938,12.604
								C2310.496,4132.091,2306.882,4132.817,2305.443,4133.007z M2312.918,4105.952c-0.002,0.003-0.004,0.007-0.005,0.011
								C2312.915,4105.959,2312.917,4105.955,2312.918,4105.952z M2312.923,4105.941c-0.001,0.002-0.002,0.004-0.003,0.006
								C2312.921,4105.945,2312.922,4105.943,2312.923,4105.941z"/>
						</g>
						<g>
							<path style="fill:#E21717;" d="M3409.976,2092.436c-9.5,0-17.296-7.602-17.489-17.144
								c-0.006-0.15-0.952-25.357-17.376-99.719c-15.009-67.947-39.837-86.081-40.086-86.256c0.26,0.183,0.401,0.261,0.401,0.261
								l18.516-29.701c3.733,2.328,37.009,25.138,55.345,108.147c17.45,79.003,18.171,105.468,18.192,106.556
								c0.197,9.663-7.478,17.656-17.141,17.853C3410.218,2092.435,3410.096,2092.436,3409.976,2092.436z"/>
						</g>
						<g>
							<path style="fill:#C10618;" d="M3546.395,2141.618l-29.449-18.914c0,0-0.13,0.173-0.338,0.556
								c0.109-0.201,10.917-20.866,7.751-83.838c-2.529-50.298-18.479-91.176-18.64-91.583c-3.548-8.982,0.846-19.149,9.823-22.708
								c8.978-3.557,19.138,0.818,22.706,9.792c0.743,1.869,18.234,46.411,21.065,102.742
								C3563.035,2111.666,3549.205,2137.242,3546.395,2141.618z"/>
						</g>
						<g>
							<path style="fill:#C10618;" d="M3676.194,2211.375l-29.449-18.914c0,0-0.13,0.172-0.338,0.556
								c0.109-0.201,10.917-20.866,7.751-83.837c-2.529-50.298-18.479-91.176-18.64-91.583c-3.548-8.982,0.846-19.149,9.823-22.708
								c8.978-3.558,19.137,0.818,22.706,9.792c0.743,1.869,18.234,46.411,21.065,102.742
								C3692.835,2181.423,3679.005,2206.999,3676.194,2211.375z"/>
						</g>
						<g>
							<path style="fill:#9E041A;" d="M3784.575,2275.388l-29.158-19.361c0,0-0.156,0.197-0.4,0.643
								c0.104-0.188,10.252-19.463,6.172-78.439c-3.289-47.537-19.732-86.427-19.898-86.814c-3.799-8.878,0.308-19.165,9.182-22.975
								c8.877-3.812,19.152,0.279,22.972,9.148c0.771,1.792,18.944,44.499,22.661,98.225
								C3801.007,2246.677,3787.36,2271.193,3784.575,2275.388z"/>
						</g>
						<g>
							<path style="fill:#9E041A;" d="M3885.064,2337.661l-24.992-16.595c0,0-0.114,0.147-0.298,0.474
								c0.106-0.19,10.642-19.675,6.48-79.826c-3.339-48.259-19.921-87.224-20.088-87.611c-3.277-7.608,0.233-16.433,7.843-19.71
								c7.606-3.276,16.433,0.233,19.71,7.842c0.765,1.776,18.775,44.103,22.463,97.409
								C3901.029,2309.699,3887.771,2333.584,3885.064,2337.661z"/>
						</g>
						<g>
							<path style="fill:#9E041A;" d="M3950.632,2398.91l-19.576-22.732c0,0-0.174,0.126-0.469,0.427
								c0.161-0.165,16.068-17.107,16.467-75.708c0.322-47.224-22.013-86.6-22.238-86.992c-4.126-7.171-1.674-16.341,5.489-20.48
								c7.167-4.139,16.319-1.71,20.471,5.445c1.089,1.875,26.657,46.573,26.278,102.231
								C3976.563,2372.959,3954.958,2395.184,3950.632,2398.91z"/>
						</g>
						<g>
							<path style="fill:#89001A;" d="M4026.467,2444.582l-16.303-18.952c0,0-0.122,0.09-0.333,0.301
								c0.163-0.163,16.33-16.932,16.694-75.518c0.292-46.809-21.884-85.787-22.107-86.175c-3.446-5.973-1.41-13.617,4.557-17.073
								c5.965-3.456,13.601-1.437,17.066,4.525c1.054,1.813,25.82,45.037,25.484,98.878
								C4051.085,2421.372,4028.985,2442.416,4026.467,2444.582z"/>
						</g>
						<g>
							<path style="fill:#89001A;" d="M4089.848,2485.676l-16.094-19.131c0,0-0.132,0.095-0.359,0.319
								c0.158-0.156,15.853-16.266,15.563-73.075c-0.233-45.881-22.691-83.852-22.918-84.23c-3.551-5.92-1.63-13.598,4.29-17.149
								c5.924-3.55,13.6-1.629,17.149,4.291c1.07,1.784,26.21,44.302,26.479,96.962
								C4114.312,2463.083,4092.353,2483.569,4089.848,2485.676z"/>
						</g>
						<g>
							<path style="fill:#89001A;" d="M4130.357,2508.742l-16.092-19.133c0,0-0.132,0.095-0.36,0.319
								c0.059-0.057,5.831-5.887,10.304-22.947c3.603-13.708,5.375-30.568,5.271-50.118c-0.097-18.299-3.885-38.257-10.954-57.719
								c-5.833-16.135-11.922-26.423-11.983-26.525c-3.53-5.923-1.604-13.595,4.313-17.136c5.916-3.54,13.578-1.63,17.129,4.282
								c0.296,0.494,7.333,12.295,14.046,30.862c8.145,22.423,12.335,44.669,12.449,66.103c0.116,21.738-1.933,40.781-6.089,56.598
								C4141.909,2498.05,4132.231,2507.166,4130.357,2508.742z"/>
						</g>
						<g style="opacity:0.6;">
							<path style="fill:#DBD2D2;" d="M4136.586,2500c0,1.966,0,3.965-0.033,5.931c-0.031,13.386-0.221,26.709-0.601,40
								c-0.92,33.656-2.856,67.058-5.774,100.175c-69.151,784.968-690.154,1411.521-1472.585,1489.301
								c-54.147,5.394-109.025,8.153-164.568,8.153c-410.756,0-786.333-150.675-1074.422-399.812
								c-165.172-142.807-301.636-317.972-399.463-515.656c162.443,65.885,341.857,123.363,533.04,160.857
								c474.133,93.005,1020.751,63.156,1561.055-266.235c354.228-215.956,533.643-536.18,596.196-861.923
								c77.622-404.379-24.836-817.292-196.67-1049.807c270.581,214.339,472.137,512.104,565.744,854.406
								c25.567,93.45,43.078,190.199,51.77,289.486c3.33,38.065,5.36,76.511,6.026,115.274
								C4136.492,2480.08,4136.586,2490.04,4136.586,2500z"/>
						</g>
						<g>
							<path style="fill:#DBD2D2;" d="M4135.953,2545.932c4.09,19.952,8.627,54.909-0.635,85.297
								c-1.619,5.298-3.33,10.246-5.139,14.877c-69.151,784.968-690.154,1411.521-1472.585,1489.301
								c-54.147,5.394-109.025,8.153-164.568,8.153c-410.756,0-786.333-150.675-1074.422-399.812
								c141.855,77.209,325.774,147.598,553.849,177.637c279.651,36.892,658.783,40.305,1075.153-105.802
								c631.724-221.667,873.342-729.063,976.879-1221.024c6.471-30.77,12.307-61.602,17.447-92.435
								c2.125-12.434,4.123-24.901,5.996-37.336c20.681-135.607,29.563-270.485,30.578-399.399
								c25.567,93.45,43.078,190.199,51.77,289.486c5.899,16.241,11.578,38.033,11.705,61.919
								c0.125,23.601-2.412,40.92-5.678,53.354c0.19,9.929,0.285,19.889,0.285,29.85c0,1.966,0,3.965-0.033,5.931
								C4136.523,2519.318,4136.333,2532.641,4135.953,2545.932z"/>
						</g>
					</g>
					<g>
						
							<ellipse transform="matrix(0.8855 -0.4646 0.4646 0.8855 -390.0888 1077.0513)" style="fill:#FFFFFF;" cx="1990.401" cy="1330.055" rx="503.211" ry="209.911"/>
					</g>
				</g>
				<g>
					<ellipse style="fill:#FFFFFF;" cx="1090.482" cy="2679.95" rx="99.717" ry="242.025"/>
				</g>
			</g>
			<g style="opacity:0.29;">
				<path style="fill:#FFFFFF;" d="M3526.724,3191.305c64.164,81.104-188.496,386.414-532.813,513.501
					c-344.318,127.086-699.309,79.054-692.653-27.789c6.539-104.958,263.188-167.184,582.815-303.129
					C3219.739,3231.12,3461.828,3109.278,3526.724,3191.305z"/>
			</g>
		</g>
		<g>
			<ellipse style="fill:#FFFFFF;" cx="2600.86" cy="1078.606" rx="107.837" ry="44.805"/>
		</g>
	</g>
</g>
</svg>
